<svg width="12" height="12" viewBox="0 0 12 12" fill="none" xmlns="http://www.w3.org/2000/svg">
<path d="M3.35031 7.67174C3.06077 7.67174 2.76131 7.67824 2.50647 7.66524C1.45934 7.66524 0.754312 7.10655 0.225791 6.26526C-0.0667298 5.79752 0.0522607 5.58314 0.599622 5.53441C1.37902 5.46945 3.05085 5.40449 3.72414 5.35251L1.6527 2.05558C1.6051 1.97762 1.6527 1.87692 1.73996 1.86393C2.65124 1.74375 3.35726 1.96138 3.89768 2.49408C4.47776 3.06252 4.99636 3.88757 5.51794 4.57944C6.09505 3.83885 7.16697 2.1108 7.79861 1.20454C8.07824 0.801765 8.39457 0.788772 8.64841 1.14608C8.95779 1.56185 9.20569 2.02309 9.38616 2.51033C9.4635 2.7442 9.33162 3.09825 9.1928 3.33537C8.82591 3.95578 8.40051 4.54371 7.92455 5.25507C8.34002 5.30704 8.5552 5.32003 8.90325 5.37525C9.8056 5.51493 10.462 5.86248 10.9876 6.51862C11.0649 6.61607 11.2484 6.95388 11.1641 7.22024C11.1224 7.35666 10.7744 7.45736 10.5592 7.4736C9.77982 7.53207 7.989 7.53532 7.47337 7.52557C7.7054 7.89587 7.93049 8.27916 8.10402 8.56175C8.50066 9.19515 8.90028 9.8318 9.29989 10.4652C9.54382 10.8517 9.43177 11.0921 9.00935 11.222C8.64246 11.3325 8.24979 11.3325 7.89183 11.1961C7.53485 11.0596 7.25125 10.7868 7.03508 10.4685C6.65133 9.89352 5.93639 8.72741 5.73708 8.46755C5.16691 9.31859 4.50949 10.319 3.95915 11.1733C3.40882 12.0276 3.01516 12.0146 2.4906 11.1311C2.05926 10.4067 1.89168 9.69213 2.4906 8.95154C2.77023 8.56175 3.35031 7.67174 3.35031 7.67174Z" fill="#B8A4FD"/>
</svg>
