<svg width="343" height="68" viewBox="0 0 343 68" fill="none" xmlns="http://www.w3.org/2000/svg">
<path d="M9.04545 1.36364H10.4545V9.06818C10.4545 9.86364 10.267 10.5739 9.89205 11.1989C9.52083 11.8201 8.99621 12.3106 8.31818 12.6705C7.64015 13.0265 6.8447 13.2045 5.93182 13.2045C5.01894 13.2045 4.22348 13.0265 3.54545 12.6705C2.86742 12.3106 2.34091 11.8201 1.96591 11.1989C1.5947 10.5739 1.40909 9.86364 1.40909 9.06818V1.36364H2.81818V8.95455C2.81818 9.52273 2.94318 10.0284 3.19318 10.4716C3.44318 10.911 3.79924 11.2576 4.26136 11.5114C4.72727 11.7614 5.28409 11.8864 5.93182 11.8864C6.57955 11.8864 7.13636 11.7614 7.60227 11.5114C8.06818 11.2576 8.42424 10.911 8.67045 10.4716C8.92045 10.0284 9.04545 9.52273 9.04545 8.95455V1.36364ZM13.3566 16.2727V4.27273H14.6521V5.65909H14.8112C14.9097 5.50758 15.046 5.31439 15.2203 5.07955C15.3983 4.84091 15.6521 4.62879 15.9816 4.44318C16.315 4.25379 16.7657 4.15909 17.3339 4.15909C18.0688 4.15909 18.7165 4.3428 19.2771 4.71023C19.8377 5.07765 20.2752 5.59848 20.5896 6.27273C20.904 6.94697 21.0612 7.74242 21.0612 8.65909C21.0612 9.58333 20.904 10.3845 20.5896 11.0625C20.2752 11.7367 19.8396 12.2595 19.2828 12.6307C18.726 12.9981 18.0839 13.1818 17.3566 13.1818C16.796 13.1818 16.3472 13.089 16.0101 12.9034C15.6729 12.714 15.4135 12.5 15.2316 12.2614C15.0498 12.0189 14.9097 11.8182 14.8112 11.6591H14.6976V16.2727H13.3566ZM14.6748 8.63636C14.6748 9.29545 14.7714 9.87689 14.9646 10.3807C15.1578 10.8807 15.44 11.2727 15.8112 11.5568C16.1824 11.8371 16.637 11.9773 17.1748 11.9773C17.7354 11.9773 18.2032 11.8295 18.5782 11.5341C18.957 11.2348 19.2411 10.8333 19.4305 10.3295C19.6237 9.82197 19.7203 9.25758 19.7203 8.63636C19.7203 8.02273 19.6256 7.4697 19.4362 6.97727C19.2506 6.48106 18.9684 6.08902 18.5896 5.80114C18.2146 5.50947 17.743 5.36364 17.1748 5.36364C16.6294 5.36364 16.171 5.50189 15.7998 5.77841C15.4286 6.05114 15.1483 6.43371 14.9589 6.92614C14.7695 7.41477 14.6748 7.98485 14.6748 8.63636ZM25.057 13L22.398 4.27273H23.807L25.6934 10.9545H25.7843L27.648 4.27273H29.0798L30.9207 10.9318H31.0116L32.898 4.27273H34.307L31.648 13H30.3298L28.4207 6.29545H28.2843L26.3752 13H25.057ZM39.5984 13.1818C38.8105 13.1818 38.1192 12.9943 37.5245 12.6193C36.9336 12.2443 36.4715 11.7197 36.1381 11.0455C35.8086 10.3712 35.6438 9.58333 35.6438 8.68182C35.6438 7.77273 35.8086 6.97917 36.1381 6.30114C36.4715 5.62311 36.9336 5.09659 37.5245 4.72159C38.1192 4.34659 38.8105 4.15909 39.5984 4.15909C40.3862 4.15909 41.0756 4.34659 41.6665 4.72159C42.2612 5.09659 42.7234 5.62311 43.0529 6.30114C43.3862 6.97917 43.5529 7.77273 43.5529 8.68182C43.5529 9.58333 43.3862 10.3712 43.0529 11.0455C42.7234 11.7197 42.2612 12.2443 41.6665 12.6193C41.0756 12.9943 40.3862 13.1818 39.5984 13.1818ZM39.5984 11.9773C40.1968 11.9773 40.6893 11.8239 41.0756 11.517C41.462 11.2102 41.748 10.8068 41.9336 10.3068C42.1192 9.80682 42.212 9.26515 42.212 8.68182C42.212 8.09848 42.1192 7.55492 41.9336 7.05114C41.748 6.54735 41.462 6.14015 41.0756 5.82955C40.6893 5.51894 40.1968 5.36364 39.5984 5.36364C38.9999 5.36364 38.5074 5.51894 38.1211 5.82955C37.7347 6.14015 37.4487 6.54735 37.2631 7.05114C37.0775 7.55492 36.9847 8.09848 36.9847 8.68182C36.9847 9.26515 37.0775 9.80682 37.2631 10.3068C37.4487 10.8068 37.7347 11.2102 38.1211 11.517C38.5074 11.8239 38.9999 11.9773 39.5984 11.9773ZM45.8698 13V4.27273H47.1652V5.59091H47.2561C47.4152 5.15909 47.7031 4.80871 48.1198 4.53977C48.5364 4.27083 49.0061 4.13636 49.5289 4.13636C49.6274 4.13636 49.7505 4.13826 49.8982 4.14205C50.0459 4.14583 50.1577 4.15152 50.2334 4.15909V5.52273C50.188 5.51136 50.0838 5.49432 49.9209 5.47159C49.7618 5.44508 49.5933 5.43182 49.4152 5.43182C48.991 5.43182 48.6122 5.52083 48.2789 5.69886C47.9493 5.87311 47.688 6.11553 47.4948 6.42614C47.3054 6.73295 47.2107 7.08333 47.2107 7.47727V13H45.8698ZM55.1227 13.1818C54.3955 13.1818 53.7534 12.9981 53.1966 12.6307C52.6398 12.2595 52.2042 11.7367 51.8898 11.0625C51.5754 10.3845 51.4182 9.58333 51.4182 8.65909C51.4182 7.74242 51.5754 6.94697 51.8898 6.27273C52.2042 5.59848 52.6417 5.07765 53.2023 4.71023C53.7629 4.3428 54.4106 4.15909 55.1455 4.15909C55.7136 4.15909 56.1625 4.25379 56.492 4.44318C56.8254 4.62879 57.0792 4.84091 57.2534 5.07955C57.4314 5.31439 57.5697 5.50758 57.6682 5.65909H57.7818V1.36364H59.1227V13H57.8273V11.6591H57.6682C57.5697 11.8182 57.4295 12.0189 57.2477 12.2614C57.0659 12.5 56.8064 12.714 56.4693 12.9034C56.1322 13.089 55.6833 13.1818 55.1227 13.1818ZM55.3045 11.9773C55.8424 11.9773 56.297 11.8371 56.6682 11.5568C57.0394 11.2727 57.3216 10.8807 57.5148 10.3807C57.708 9.87689 57.8045 9.29545 57.8045 8.63636C57.8045 7.98485 57.7098 7.41477 57.5205 6.92614C57.3311 6.43371 57.0508 6.05114 56.6795 5.77841C56.3083 5.50189 55.85 5.36364 55.3045 5.36364C54.7364 5.36364 54.2629 5.50947 53.8841 5.80114C53.5091 6.08902 53.2269 6.48106 53.0375 6.97727C52.8519 7.4697 52.7591 8.02273 52.7591 8.63636C52.7591 9.25758 52.8538 9.82197 53.0432 10.3295C53.2364 10.8333 53.5205 11.2348 53.8955 11.5341C54.2742 11.8295 54.7439 11.9773 55.3045 11.9773ZM66.9866 13V1.36364H68.3275V5.65909H68.4411C68.5396 5.50758 68.676 5.31439 68.8502 5.07955C69.0283 4.84091 69.282 4.62879 69.6116 4.44318C69.9449 4.25379 70.3957 4.15909 70.9639 4.15909C71.6987 4.15909 72.3464 4.3428 72.907 4.71023C73.4677 5.07765 73.9052 5.59848 74.2195 6.27273C74.5339 6.94697 74.6911 7.74242 74.6911 8.65909C74.6911 9.58333 74.5339 10.3845 74.2195 11.0625C73.9052 11.7367 73.4695 12.2595 72.9127 12.6307C72.3559 12.9981 71.7139 13.1818 70.9866 13.1818C70.426 13.1818 69.9771 13.089 69.64 12.9034C69.3029 12.714 69.0434 12.5 68.8616 12.2614C68.6798 12.0189 68.5396 11.8182 68.4411 11.6591H68.282V13H66.9866ZM68.3048 8.63636C68.3048 9.29545 68.4014 9.87689 68.5945 10.3807C68.7877 10.8807 69.0699 11.2727 69.4411 11.5568C69.8123 11.8371 70.2669 11.9773 70.8048 11.9773C71.3654 11.9773 71.8332 11.8295 72.2082 11.5341C72.587 11.2348 72.8711 10.8333 73.0605 10.3295C73.2536 9.82197 73.3502 9.25758 73.3502 8.63636C73.3502 8.02273 73.2555 7.4697 73.0661 6.97727C72.8805 6.48106 72.5983 6.08902 72.2195 5.80114C71.8445 5.50947 71.373 5.36364 70.8048 5.36364C70.2593 5.36364 69.801 5.50189 69.4298 5.77841C69.0586 6.05114 68.7783 6.43371 68.5889 6.92614C68.3995 7.41477 68.3048 7.98485 68.3048 8.63636ZM80.6714 13.1818C79.8305 13.1818 79.1051 12.9962 78.4952 12.625C77.8892 12.25 77.4214 11.7273 77.0918 11.0568C76.7661 10.3826 76.6032 9.59848 76.6032 8.70455C76.6032 7.81061 76.7661 7.02273 77.0918 6.34091C77.4214 5.6553 77.8797 5.12121 78.4668 4.73864C79.0577 4.35227 79.7471 4.15909 80.535 4.15909C80.9895 4.15909 81.4384 4.23485 81.8816 4.38636C82.3248 4.53788 82.7282 4.78409 83.0918 5.125C83.4555 5.46212 83.7452 5.90909 83.9611 6.46591C84.177 7.02273 84.285 7.70833 84.285 8.52273V9.09091H77.5577V7.93182H82.9214C82.9214 7.43939 82.8229 7 82.6259 6.61364C82.4327 6.22727 82.1562 5.92235 81.7964 5.69886C81.4403 5.47538 81.0199 5.36364 80.535 5.36364C80.0009 5.36364 79.5388 5.49621 79.1486 5.76136C78.7623 6.02273 78.4649 6.36364 78.2566 6.78409C78.0483 7.20455 77.9441 7.6553 77.9441 8.13636V8.90909C77.9441 9.56818 78.0577 10.1269 78.285 10.5852C78.5161 11.0398 78.8361 11.3864 79.2452 11.625C79.6543 11.8598 80.1297 11.9773 80.6714 11.9773C81.0236 11.9773 81.3418 11.928 81.6259 11.8295C81.9138 11.7273 82.1619 11.5758 82.3702 11.375C82.5786 11.1705 82.7395 10.9167 82.8532 10.6136L84.1486 10.9773C84.0123 11.4167 83.7831 11.803 83.4611 12.1364C83.1392 12.4659 82.7414 12.7235 82.268 12.9091C81.7945 13.0909 81.2623 13.1818 80.6714 13.1818ZM87.9357 1.36364V13H86.5948V1.36364H87.9357ZM90.6616 13V4.27273H92.0026V13H90.6616ZM91.3435 2.81818C91.0821 2.81818 90.8567 2.72917 90.6673 2.55114C90.4817 2.37311 90.3889 2.15909 90.3889 1.90909C90.3889 1.65909 90.4817 1.44508 90.6673 1.26705C90.8567 1.08902 91.0821 1 91.3435 1C91.6048 1 91.8283 1.08902 92.0139 1.26705C92.2033 1.44508 92.298 1.65909 92.298 1.90909C92.298 2.15909 92.2033 2.37311 92.0139 2.55114C91.8283 2.72917 91.6048 2.81818 91.3435 2.81818ZM98.3876 13.1818C97.5467 13.1818 96.8213 12.9962 96.2115 12.625C95.6054 12.25 95.1376 11.7273 94.8081 11.0568C94.4823 10.3826 94.3194 9.59848 94.3194 8.70455C94.3194 7.81061 94.4823 7.02273 94.8081 6.34091C95.1376 5.6553 95.5959 5.12121 96.1831 4.73864C96.774 4.35227 97.4634 4.15909 98.2513 4.15909C98.7058 4.15909 99.1547 4.23485 99.5978 4.38636C100.041 4.53788 100.444 4.78409 100.808 5.125C101.172 5.46212 101.461 5.90909 101.677 6.46591C101.893 7.02273 102.001 7.70833 102.001 8.52273V9.09091H95.274V7.93182H100.638C100.638 7.43939 100.539 7 100.342 6.61364C100.149 6.22727 99.8725 5.92235 99.5126 5.69886C99.1566 5.47538 98.7361 5.36364 98.2513 5.36364C97.7172 5.36364 97.255 5.49621 96.8649 5.76136C96.4785 6.02273 96.1812 6.36364 95.9728 6.78409C95.7645 7.20455 95.6603 7.6553 95.6603 8.13636V8.90909C95.6603 9.56818 95.774 10.1269 96.0013 10.5852C96.2323 11.0398 96.5524 11.3864 96.9615 11.625C97.3706 11.8598 97.8459 11.9773 98.3876 11.9773C98.7399 11.9773 99.0581 11.928 99.3422 11.8295C99.63 11.7273 99.8781 11.5758 100.086 11.375C100.295 11.1705 100.456 10.9167 100.569 10.6136L101.865 10.9773C101.729 11.4167 101.499 11.803 101.177 12.1364C100.855 12.4659 100.458 12.7235 99.9842 12.9091C99.5107 13.0909 98.9785 13.1818 98.3876 13.1818ZM111.182 4.27273L107.954 13H106.591L103.364 4.27273H104.818L107.227 11.2273H107.318L109.727 4.27273H111.182ZM116.568 13.1818C115.727 13.1818 115.002 12.9962 114.392 12.625C113.786 12.25 113.318 11.7273 112.989 11.0568C112.663 10.3826 112.5 9.59848 112.5 8.70455C112.5 7.81061 112.663 7.02273 112.989 6.34091C113.318 5.6553 113.777 5.12121 114.364 4.73864C114.955 4.35227 115.644 4.15909 116.432 4.15909C116.886 4.15909 117.335 4.23485 117.778 4.38636C118.222 4.53788 118.625 4.78409 118.989 5.125C119.352 5.46212 119.642 5.90909 119.858 6.46591C120.074 7.02273 120.182 7.70833 120.182 8.52273V9.09091H113.455V7.93182H118.818C118.818 7.43939 118.72 7 118.523 6.61364C118.33 6.22727 118.053 5.92235 117.693 5.69886C117.337 5.47538 116.917 5.36364 116.432 5.36364C115.898 5.36364 115.436 5.49621 115.046 5.76136C114.659 6.02273 114.362 6.36364 114.153 6.78409C113.945 7.20455 113.841 7.6553 113.841 8.13636V8.90909C113.841 9.56818 113.955 10.1269 114.182 10.5852C114.413 11.0398 114.733 11.3864 115.142 11.625C115.551 11.8598 116.027 11.9773 116.568 11.9773C116.921 11.9773 117.239 11.928 117.523 11.8295C117.811 11.7273 118.059 11.5758 118.267 11.375C118.475 11.1705 118.636 10.9167 118.75 10.6136L120.046 10.9773C119.909 11.4167 119.68 11.803 119.358 12.1364C119.036 12.4659 118.638 12.7235 118.165 12.9091C117.691 13.0909 117.159 13.1818 116.568 13.1818ZM128.673 6.22727L127.469 6.56818C127.393 6.36742 127.281 6.17235 127.134 5.98295C126.99 5.78977 126.793 5.63068 126.543 5.50568C126.293 5.38068 125.973 5.31818 125.583 5.31818C125.048 5.31818 124.603 5.44129 124.247 5.6875C123.895 5.92992 123.719 6.23864 123.719 6.61364C123.719 6.94697 123.84 7.21023 124.083 7.40341C124.325 7.59659 124.704 7.75758 125.219 7.88636L126.514 8.20455C127.295 8.39394 127.876 8.68371 128.259 9.07386C128.641 9.46023 128.833 9.95833 128.833 10.5682C128.833 11.0682 128.689 11.5152 128.401 11.9091C128.117 12.303 127.719 12.6136 127.208 12.8409C126.696 13.0682 126.101 13.1818 125.423 13.1818C124.533 13.1818 123.797 12.9886 123.213 12.6023C122.63 12.2159 122.261 11.6515 122.105 10.9091L123.378 10.5909C123.499 11.0606 123.728 11.4129 124.066 11.6477C124.406 11.8826 124.851 12 125.401 12C126.026 12 126.522 11.8674 126.889 11.6023C127.261 11.3333 127.446 11.0114 127.446 10.6364C127.446 10.3333 127.34 10.0795 127.128 9.875C126.916 9.66667 126.59 9.51136 126.151 9.40909L124.696 9.06818C123.897 8.87879 123.31 8.58523 122.935 8.1875C122.564 7.78598 122.378 7.28409 122.378 6.68182C122.378 6.18939 122.516 5.75379 122.793 5.375C123.073 4.99621 123.454 4.69886 123.935 4.48295C124.42 4.26705 124.969 4.15909 125.583 4.15909C126.446 4.15909 127.124 4.34848 127.617 4.72727C128.113 5.10606 128.465 5.60606 128.673 6.22727ZM139.686 4.27273V5.40909H135.164V4.27273H139.686ZM136.482 2.18182H137.823V10.5C137.823 10.8788 137.878 11.1629 137.988 11.3523C138.101 11.5379 138.245 11.6629 138.419 11.7273C138.597 11.7879 138.785 11.8182 138.982 11.8182C139.13 11.8182 139.251 11.8106 139.346 11.7955C139.44 11.7765 139.516 11.7614 139.573 11.75L139.846 12.9545C139.755 12.9886 139.628 13.0227 139.465 13.0568C139.302 13.0947 139.096 13.1136 138.846 13.1136C138.467 13.1136 138.096 13.0322 137.732 12.8693C137.372 12.7064 137.073 12.4583 136.834 12.125C136.599 11.7917 136.482 11.3712 136.482 10.8636V2.18182ZM143.502 7.75V13H142.161V1.36364H143.502V5.63636H143.616C143.82 5.18561 144.127 4.82765 144.536 4.5625C144.949 4.29356 145.498 4.15909 146.184 4.15909C146.778 4.15909 147.299 4.27841 147.746 4.51705C148.193 4.75189 148.54 5.11364 148.786 5.60227C149.036 6.08712 149.161 6.70455 149.161 7.45455V13H147.82V7.54545C147.82 6.85227 147.64 6.31629 147.28 5.9375C146.924 5.55492 146.43 5.36364 145.797 5.36364C145.358 5.36364 144.964 5.45644 144.616 5.64205C144.271 5.82765 143.998 6.09848 143.797 6.45455C143.6 6.81061 143.502 7.24242 143.502 7.75ZM154.452 13.2045C153.899 13.2045 153.397 13.1004 152.947 12.892C152.496 12.6799 152.138 12.375 151.873 11.9773C151.608 11.5758 151.475 11.0909 151.475 10.5227C151.475 10.0227 151.574 9.61742 151.771 9.30682C151.967 8.99242 152.231 8.74621 152.56 8.56818C152.89 8.39015 153.253 8.25758 153.651 8.17045C154.053 8.07955 154.456 8.00758 154.861 7.95455C155.392 7.88636 155.822 7.83523 156.151 7.80114C156.485 7.76326 156.727 7.70076 156.878 7.61364C157.034 7.52652 157.111 7.375 157.111 7.15909V7.11364C157.111 6.55303 156.958 6.11742 156.651 5.80682C156.348 5.49621 155.888 5.34091 155.271 5.34091C154.63 5.34091 154.128 5.48106 153.765 5.76136C153.401 6.04167 153.146 6.34091 152.998 6.65909L151.725 6.20455C151.952 5.67424 152.255 5.26136 152.634 4.96591C153.017 4.66667 153.433 4.45833 153.884 4.34091C154.339 4.2197 154.786 4.15909 155.225 4.15909C155.505 4.15909 155.827 4.19318 156.191 4.26136C156.558 4.32576 156.913 4.46023 157.253 4.66477C157.598 4.86932 157.884 5.17803 158.111 5.59091C158.339 6.00379 158.452 6.55682 158.452 7.25V13H157.111V11.8182H157.043C156.952 12.0076 156.801 12.2102 156.589 12.4261C156.377 12.642 156.094 12.8258 155.742 12.9773C155.39 13.1288 154.96 13.2045 154.452 13.2045ZM154.657 12C155.187 12 155.634 11.8958 155.998 11.6875C156.365 11.4792 156.642 11.2102 156.827 10.8807C157.017 10.5511 157.111 10.2045 157.111 9.84091V8.61364C157.055 8.68182 156.93 8.74432 156.736 8.80114C156.547 8.85417 156.327 8.90151 156.077 8.94318C155.831 8.98106 155.591 9.01515 155.356 9.04545C155.125 9.07197 154.937 9.0947 154.793 9.11364C154.445 9.15909 154.119 9.23295 153.816 9.33523C153.517 9.43371 153.274 9.58333 153.089 9.78409C152.907 9.98106 152.816 10.25 152.816 10.5909C152.816 11.0568 152.988 11.4091 153.333 11.6477C153.681 11.8826 154.123 12 154.657 12ZM164.965 4.27273V5.40909H160.443V4.27273H164.965ZM161.761 2.18182H163.102V10.5C163.102 10.8788 163.157 11.1629 163.266 11.3523C163.38 11.5379 163.524 11.6629 163.698 11.7273C163.876 11.7879 164.064 11.8182 164.261 11.8182C164.408 11.8182 164.53 11.8106 164.624 11.7955C164.719 11.7765 164.795 11.7614 164.852 11.75L165.124 12.9545C165.033 12.9886 164.907 13.0227 164.744 13.0568C164.581 13.0947 164.374 13.1136 164.124 13.1136C163.746 13.1136 163.374 13.0322 163.011 12.8693C162.651 12.7064 162.352 12.4583 162.113 12.125C161.878 11.7917 161.761 11.3712 161.761 10.8636V2.18182ZM172.022 13V4.27273H173.318V5.59091H173.409C173.568 5.15909 173.856 4.80871 174.272 4.53977C174.689 4.27083 175.159 4.13636 175.681 4.13636C175.78 4.13636 175.903 4.13826 176.051 4.14205C176.198 4.14583 176.31 4.15152 176.386 4.15909V5.52273C176.34 5.51136 176.236 5.49432 176.073 5.47159C175.914 5.44508 175.746 5.43182 175.568 5.43182C175.143 5.43182 174.765 5.52083 174.431 5.69886C174.102 5.87311 173.84 6.11553 173.647 6.42614C173.458 6.73295 173.363 7.08333 173.363 7.47727V13H172.022ZM181.639 13.1818C180.798 13.1818 180.073 12.9962 179.463 12.625C178.857 12.25 178.389 11.7273 178.059 11.0568C177.734 10.3826 177.571 9.59848 177.571 8.70455C177.571 7.81061 177.734 7.02273 178.059 6.34091C178.389 5.6553 178.847 5.12121 179.434 4.73864C180.025 4.35227 180.715 4.15909 181.503 4.15909C181.957 4.15909 182.406 4.23485 182.849 4.38636C183.292 4.53788 183.696 4.78409 184.059 5.125C184.423 5.46212 184.713 5.90909 184.929 6.46591C185.145 7.02273 185.253 7.70833 185.253 8.52273V9.09091H178.525V7.93182H183.889C183.889 7.43939 183.79 7 183.593 6.61364C183.4 6.22727 183.124 5.92235 182.764 5.69886C182.408 5.47538 181.987 5.36364 181.503 5.36364C180.968 5.36364 180.506 5.49621 180.116 5.76136C179.73 6.02273 179.432 6.36364 179.224 6.78409C179.016 7.20455 178.912 7.6553 178.912 8.13636V8.90909C178.912 9.56818 179.025 10.1269 179.253 10.5852C179.484 11.0398 179.804 11.3864 180.213 11.625C180.622 11.8598 181.097 11.9773 181.639 11.9773C181.991 11.9773 182.309 11.928 182.593 11.8295C182.881 11.7273 183.129 11.5758 183.338 11.375C183.546 11.1705 183.707 10.9167 183.821 10.6136L185.116 10.9773C184.98 11.4167 184.751 11.803 184.429 12.1364C184.107 12.4659 183.709 12.7235 183.235 12.9091C182.762 13.0909 182.23 13.1818 181.639 13.1818ZM190.13 13.2045C189.577 13.2045 189.076 13.1004 188.625 12.892C188.174 12.6799 187.816 12.375 187.551 11.9773C187.286 11.5758 187.153 11.0909 187.153 10.5227C187.153 10.0227 187.252 9.61742 187.449 9.30682C187.646 8.99242 187.909 8.74621 188.238 8.56818C188.568 8.39015 188.932 8.25758 189.329 8.17045C189.731 8.07955 190.134 8.00758 190.54 7.95455C191.07 7.88636 191.5 7.83523 191.829 7.80114C192.163 7.76326 192.405 7.70076 192.557 7.61364C192.712 7.52652 192.79 7.375 192.79 7.15909V7.11364C192.79 6.55303 192.636 6.11742 192.329 5.80682C192.026 5.49621 191.566 5.34091 190.949 5.34091C190.308 5.34091 189.807 5.48106 189.443 5.76136C189.079 6.04167 188.824 6.34091 188.676 6.65909L187.403 6.20455C187.63 5.67424 187.933 5.26136 188.312 4.96591C188.695 4.66667 189.112 4.45833 189.562 4.34091C190.017 4.2197 190.464 4.15909 190.903 4.15909C191.183 4.15909 191.505 4.19318 191.869 4.26136C192.237 4.32576 192.591 4.46023 192.932 4.66477C193.276 4.86932 193.562 5.17803 193.79 5.59091C194.017 6.00379 194.13 6.55682 194.13 7.25V13H192.79V11.8182H192.721C192.63 12.0076 192.479 12.2102 192.267 12.4261C192.055 12.642 191.773 12.8258 191.42 12.9773C191.068 13.1288 190.638 13.2045 190.13 13.2045ZM190.335 12C190.865 12 191.312 11.8958 191.676 11.6875C192.043 11.4792 192.32 11.2102 192.505 10.8807C192.695 10.5511 192.79 10.2045 192.79 9.84091V8.61364C192.733 8.68182 192.608 8.74432 192.415 8.80114C192.225 8.85417 192.005 8.90151 191.755 8.94318C191.509 8.98106 191.269 9.01515 191.034 9.04545C190.803 9.07197 190.615 9.0947 190.471 9.11364C190.123 9.15909 189.797 9.23295 189.494 9.33523C189.195 9.43371 188.952 9.58333 188.767 9.78409C188.585 9.98106 188.494 10.25 188.494 10.5909C188.494 11.0568 188.666 11.4091 189.011 11.6477C189.36 11.8826 189.801 12 190.335 12ZM200.143 13.1818C199.416 13.1818 198.774 12.9981 198.217 12.6307C197.66 12.2595 197.225 11.7367 196.91 11.0625C196.596 10.3845 196.439 9.58333 196.439 8.65909C196.439 7.74242 196.596 6.94697 196.91 6.27273C197.225 5.59848 197.662 5.07765 198.223 4.71023C198.783 4.3428 199.431 4.15909 200.166 4.15909C200.734 4.15909 201.183 4.25379 201.513 4.44318C201.846 4.62879 202.1 4.84091 202.274 5.07955C202.452 5.31439 202.59 5.50758 202.689 5.65909H202.802V1.36364H204.143V13H202.848V11.6591H202.689C202.59 11.8182 202.45 12.0189 202.268 12.2614C202.087 12.5 201.827 12.714 201.49 12.9034C201.153 13.089 200.704 13.1818 200.143 13.1818ZM200.325 11.9773C200.863 11.9773 201.318 11.8371 201.689 11.5568C202.06 11.2727 202.342 10.8807 202.535 10.3807C202.729 9.87689 202.825 9.29545 202.825 8.63636C202.825 7.98485 202.73 7.41477 202.541 6.92614C202.352 6.43371 202.071 6.05114 201.7 5.77841C201.329 5.50189 200.871 5.36364 200.325 5.36364C199.757 5.36364 199.283 5.50947 198.905 5.80114C198.53 6.08902 198.248 6.48106 198.058 6.97727C197.873 7.4697 197.78 8.02273 197.78 8.63636C197.78 9.25758 197.874 9.82197 198.064 10.3295C198.257 10.8333 198.541 11.2348 198.916 11.5341C199.295 11.8295 199.765 11.9773 200.325 11.9773ZM207.055 13V4.27273H208.396V13H207.055ZM207.737 2.81818C207.476 2.81818 207.25 2.72917 207.061 2.55114C206.875 2.37311 206.783 2.15909 206.783 1.90909C206.783 1.65909 206.875 1.44508 207.061 1.26705C207.25 1.08902 207.476 1 207.737 1C207.999 1 208.222 1.08902 208.408 1.26705C208.597 1.44508 208.692 1.65909 208.692 1.90909C208.692 2.15909 208.597 2.37311 208.408 2.55114C208.222 2.72917 207.999 2.81818 207.737 2.81818ZM212.463 7.75V13H211.122V4.27273H212.418V5.63636H212.531C212.736 5.19318 213.047 4.83712 213.463 4.56818C213.88 4.29545 214.418 4.15909 215.077 4.15909C215.668 4.15909 216.185 4.2803 216.628 4.52273C217.071 4.76136 217.416 5.125 217.662 5.61364C217.908 6.09848 218.031 6.71212 218.031 7.45455V13H216.69V7.54545C216.69 6.85985 216.512 6.32576 216.156 5.94318C215.8 5.55682 215.312 5.36364 214.69 5.36364C214.262 5.36364 213.88 5.45644 213.543 5.64205C213.209 5.82765 212.946 6.09848 212.753 6.45455C212.56 6.81061 212.463 7.24242 212.463 7.75ZM224.274 16.4545C223.627 16.4545 223.07 16.3712 222.604 16.2045C222.138 16.0417 221.75 15.8258 221.439 15.5568C221.132 15.2917 220.888 15.0076 220.706 14.7045L221.774 13.9545C221.896 14.1136 222.049 14.2955 222.235 14.5C222.42 14.7083 222.674 14.8883 222.996 15.0398C223.322 15.1951 223.748 15.2727 224.274 15.2727C224.979 15.2727 225.56 15.1023 226.019 14.7614C226.477 14.4205 226.706 13.8864 226.706 13.1591V11.3864H226.593C226.494 11.5455 226.354 11.7424 226.172 11.9773C225.994 12.2083 225.736 12.4148 225.399 12.5966C225.066 12.7746 224.615 12.8636 224.047 12.8636C223.343 12.8636 222.71 12.697 222.149 12.3636C221.593 12.0303 221.151 11.5455 220.826 10.9091C220.504 10.2727 220.343 9.5 220.343 8.59091C220.343 7.69697 220.5 6.91856 220.814 6.25568C221.129 5.58901 221.566 5.07386 222.127 4.71023C222.687 4.3428 223.335 4.15909 224.07 4.15909C224.638 4.15909 225.089 4.25379 225.422 4.44318C225.759 4.62879 226.017 4.84091 226.195 5.07955C226.377 5.31439 226.517 5.50758 226.615 5.65909H226.752V4.27273H228.047V13.25C228.047 14 227.877 14.6098 227.536 15.0795C227.199 15.553 226.744 15.8996 226.172 16.1193C225.604 16.3428 224.971 16.4545 224.274 16.4545ZM224.229 11.6591C224.767 11.6591 225.221 11.536 225.593 11.2898C225.964 11.0436 226.246 10.6894 226.439 10.2273C226.632 9.76515 226.729 9.21212 226.729 8.56818C226.729 7.93939 226.634 7.38447 226.445 6.90341C226.255 6.42235 225.975 6.04545 225.604 5.77273C225.233 5.5 224.774 5.36364 224.229 5.36364C223.661 5.36364 223.187 5.50758 222.808 5.79545C222.433 6.08333 222.151 6.4697 221.962 6.95455C221.776 7.43939 221.683 7.97727 221.683 8.56818C221.683 9.17424 221.778 9.71023 221.968 10.1761C222.161 10.6383 222.445 11.0019 222.82 11.267C223.199 11.5284 223.668 11.6591 224.229 11.6591ZM239.201 13.1818C238.36 13.1818 237.634 12.9962 237.025 12.625C236.419 12.25 235.951 11.7273 235.621 11.0568C235.295 10.3826 235.133 9.59848 235.133 8.70455C235.133 7.81061 235.295 7.02273 235.621 6.34091C235.951 5.6553 236.409 5.12121 236.996 4.73864C237.587 4.35227 238.276 4.15909 239.064 4.15909C239.519 4.15909 239.968 4.23485 240.411 4.38636C240.854 4.53788 241.258 4.78409 241.621 5.125C241.985 5.46212 242.275 5.90909 242.491 6.46591C242.706 7.02273 242.814 7.70833 242.814 8.52273V9.09091H236.087V7.93182H241.451C241.451 7.43939 241.352 7 241.155 6.61364C240.962 6.22727 240.686 5.92235 240.326 5.69886C239.97 5.47538 239.549 5.36364 239.064 5.36364C238.53 5.36364 238.068 5.49621 237.678 5.76136C237.292 6.02273 236.994 6.36364 236.786 6.78409C236.578 7.20455 236.473 7.6553 236.473 8.13636V8.90909C236.473 9.56818 236.587 10.1269 236.814 10.5852C237.045 11.0398 237.366 11.3864 237.775 11.625C238.184 11.8598 238.659 11.9773 239.201 11.9773C239.553 11.9773 239.871 11.928 240.155 11.8295C240.443 11.7273 240.691 11.5758 240.9 11.375C241.108 11.1705 241.269 10.9167 241.383 10.6136L242.678 10.9773C242.542 11.4167 242.312 11.803 241.991 12.1364C241.669 12.4659 241.271 12.7235 240.797 12.9091C240.324 13.0909 239.792 13.1818 239.201 13.1818ZM249.011 4.27273V5.40909H244.306V4.27273H249.011ZM245.715 13V3.06818C245.715 2.56818 245.832 2.15151 246.067 1.81818C246.302 1.48485 246.607 1.23485 246.982 1.06818C247.357 0.901514 247.753 0.818181 248.17 0.818181C248.499 0.818181 248.768 0.844696 248.976 0.897727C249.185 0.950757 249.34 0.999999 249.442 1.04545L249.056 2.20455C248.988 2.18182 248.893 2.15341 248.772 2.11932C248.654 2.08523 248.499 2.06818 248.306 2.06818C247.863 2.06818 247.543 2.17992 247.346 2.40341C247.153 2.62689 247.056 2.95455 247.056 3.38636V13H245.715ZM255.046 4.27273V5.40909H250.342V4.27273H255.046ZM251.751 13V3.06818C251.751 2.56818 251.868 2.15151 252.103 1.81818C252.338 1.48485 252.643 1.23485 253.018 1.06818C253.393 0.901514 253.789 0.818181 254.205 0.818181C254.535 0.818181 254.804 0.844696 255.012 0.897727C255.22 0.950757 255.376 0.999999 255.478 1.04545L255.092 2.20455C255.023 2.18182 254.929 2.15341 254.807 2.11932C254.69 2.08523 254.535 2.06818 254.342 2.06818C253.898 2.06818 253.578 2.17992 253.381 2.40341C253.188 2.62689 253.092 2.95455 253.092 3.38636V13H251.751ZM257.195 13V4.27273H258.536V13H257.195ZM257.877 2.81818C257.616 2.81818 257.39 2.72917 257.201 2.55114C257.015 2.37311 256.923 2.15909 256.923 1.90909C256.923 1.65909 257.015 1.44508 257.201 1.26705C257.39 1.08902 257.616 1 257.877 1C258.139 1 258.362 1.08902 258.548 1.26705C258.737 1.44508 258.832 1.65909 258.832 1.90909C258.832 2.15909 258.737 2.37311 258.548 2.55114C258.362 2.72917 258.139 2.81818 257.877 2.81818ZM264.808 13.1818C263.99 13.1818 263.285 12.9886 262.694 12.6023C262.103 12.2159 261.649 11.6837 261.33 11.0057C261.012 10.3277 260.853 9.55303 260.853 8.68182C260.853 7.79545 261.016 7.01326 261.342 6.33523C261.671 5.65341 262.13 5.12121 262.717 4.73864C263.308 4.35227 263.997 4.15909 264.785 4.15909C265.399 4.15909 265.952 4.27273 266.444 4.5C266.937 4.72727 267.34 5.04545 267.654 5.45455C267.969 5.86364 268.164 6.34091 268.24 6.88636H266.899C266.796 6.48864 266.569 6.13636 266.217 5.82955C265.868 5.51894 265.399 5.36364 264.808 5.36364C264.285 5.36364 263.827 5.5 263.433 5.77273C263.043 6.04167 262.738 6.42235 262.518 6.91477C262.302 7.40341 262.194 7.97727 262.194 8.63636C262.194 9.31061 262.3 9.89773 262.512 10.3977C262.728 10.8977 263.031 11.286 263.421 11.5625C263.815 11.839 264.277 11.9773 264.808 11.9773C265.156 11.9773 265.473 11.9167 265.757 11.7955C266.041 11.6742 266.281 11.5 266.478 11.2727C266.675 11.0455 266.815 10.7727 266.899 10.4545H268.24C268.164 10.9697 267.976 11.4337 267.677 11.8466C267.382 12.2557 266.99 12.5814 266.501 12.8239C266.016 13.0625 265.452 13.1818 264.808 13.1818ZM270.47 13V4.27273H271.811V13H270.47ZM271.152 2.81818C270.89 2.81818 270.665 2.72917 270.475 2.55114C270.29 2.37311 270.197 2.15909 270.197 1.90909C270.197 1.65909 270.29 1.44508 270.475 1.26705C270.665 1.08902 270.89 1 271.152 1C271.413 1 271.636 1.08902 271.822 1.26705C272.011 1.44508 272.106 1.65909 272.106 1.90909C272.106 2.15909 272.011 2.37311 271.822 2.55114C271.636 2.72917 271.413 2.81818 271.152 2.81818ZM278.196 13.1818C277.355 13.1818 276.629 12.9962 276.02 12.625C275.414 12.25 274.946 11.7273 274.616 11.0568C274.29 10.3826 274.128 9.59848 274.128 8.70455C274.128 7.81061 274.29 7.02273 274.616 6.34091C274.946 5.6553 275.404 5.12121 275.991 4.73864C276.582 4.35227 277.272 4.15909 278.059 4.15909C278.514 4.15909 278.963 4.23485 279.406 4.38636C279.849 4.53788 280.253 4.78409 280.616 5.125C280.98 5.46212 281.27 5.90909 281.486 6.46591C281.701 7.02273 281.809 7.70833 281.809 8.52273V9.09091H275.082V7.93182H280.446C280.446 7.43939 280.347 7 280.15 6.61364C279.957 6.22727 279.681 5.92235 279.321 5.69886C278.965 5.47538 278.544 5.36364 278.059 5.36364C277.525 5.36364 277.063 5.49621 276.673 5.76136C276.287 6.02273 275.989 6.36364 275.781 6.78409C275.573 7.20455 275.468 7.6553 275.468 8.13636V8.90909C275.468 9.56818 275.582 10.1269 275.809 10.5852C276.04 11.0398 276.361 11.3864 276.77 11.625C277.179 11.8598 277.654 11.9773 278.196 11.9773C278.548 11.9773 278.866 11.928 279.15 11.8295C279.438 11.7273 279.686 11.5758 279.895 11.375C280.103 11.1705 280.264 10.9167 280.378 10.6136L281.673 10.9773C281.537 11.4167 281.307 11.803 280.986 12.1364C280.664 12.4659 280.266 12.7235 279.792 12.9091C279.319 13.0909 278.787 13.1818 278.196 13.1818ZM285.46 7.75V13H284.119V4.27273H285.415V5.63636H285.528C285.733 5.19318 286.043 4.83712 286.46 4.56818C286.877 4.29545 287.415 4.15909 288.074 4.15909C288.665 4.15909 289.182 4.2803 289.625 4.52273C290.068 4.76136 290.413 5.125 290.659 5.61364C290.905 6.09848 291.028 6.71212 291.028 7.45455V13H289.687V7.54545C289.687 6.85985 289.509 6.32576 289.153 5.94318C288.797 5.55682 288.309 5.36364 287.687 5.36364C287.259 5.36364 286.877 5.45644 286.54 5.64205C286.206 5.82765 285.943 6.09848 285.75 6.45455C285.557 6.81061 285.46 7.24242 285.46 7.75ZM297.544 4.27273V5.40909H293.021V4.27273H297.544ZM294.339 2.18182H295.68V10.5C295.68 10.8788 295.735 11.1629 295.845 11.3523C295.959 11.5379 296.103 11.6629 296.277 11.7273C296.455 11.7879 296.642 11.8182 296.839 11.8182C296.987 11.8182 297.108 11.8106 297.203 11.7955C297.298 11.7765 297.374 11.7614 297.43 11.75L297.703 12.9545C297.612 12.9886 297.485 13.0227 297.322 13.0568C297.159 13.0947 296.953 13.1136 296.703 13.1136C296.324 13.1136 295.953 13.0322 295.589 12.8693C295.23 12.7064 294.93 12.4583 294.692 12.125C294.457 11.7917 294.339 11.3712 294.339 10.8636V2.18182ZM301.359 1.36364V13H300.019V1.36364H301.359ZM304.949 16.2727C304.722 16.2727 304.519 16.2538 304.341 16.2159C304.163 16.1818 304.04 16.1477 303.972 16.1136L304.313 14.9318C304.638 15.0152 304.926 15.0455 305.176 15.0227C305.426 15 305.648 14.8883 305.841 14.6875C306.038 14.4905 306.218 14.1705 306.381 13.7273L306.631 13.0455L303.404 4.27273H304.858L307.267 11.2273H307.358L309.767 4.27273H311.222L307.517 14.2727C307.351 14.7235 307.144 15.0966 306.898 15.392C306.652 15.6913 306.366 15.9129 306.04 16.0568C305.718 16.2008 305.354 16.2727 304.949 16.2727ZM318.032 13V4.27273H319.373V13H318.032ZM318.713 2.81818C318.452 2.81818 318.227 2.72917 318.037 2.55114C317.852 2.37311 317.759 2.15909 317.759 1.90909C317.759 1.65909 317.852 1.44508 318.037 1.26705C318.227 1.08902 318.452 1 318.713 1C318.975 1 319.198 1.08902 319.384 1.26705C319.573 1.44508 319.668 1.65909 319.668 1.90909C319.668 2.15909 319.573 2.37311 319.384 2.55114C319.198 2.72917 318.975 2.81818 318.713 2.81818ZM328.28 6.22727L327.076 6.56818C327 6.36742 326.888 6.17235 326.741 5.98295C326.597 5.78977 326.4 5.63068 326.15 5.50568C325.9 5.38068 325.58 5.31818 325.189 5.31818C324.655 5.31818 324.21 5.44129 323.854 5.6875C323.502 5.92992 323.326 6.23864 323.326 6.61364C323.326 6.94697 323.447 7.21023 323.689 7.40341C323.932 7.59659 324.311 7.75758 324.826 7.88636L326.121 8.20455C326.902 8.39394 327.483 8.68371 327.866 9.07386C328.248 9.46023 328.439 9.95833 328.439 10.5682C328.439 11.0682 328.295 11.5152 328.008 11.9091C327.724 12.303 327.326 12.6136 326.814 12.8409C326.303 13.0682 325.708 13.1818 325.03 13.1818C324.14 13.1818 323.403 12.9886 322.82 12.6023C322.237 12.2159 321.867 11.6515 321.712 10.9091L322.985 10.5909C323.106 11.0606 323.335 11.4129 323.672 11.6477C324.013 11.8826 324.458 12 325.008 12C325.633 12 326.129 11.8674 326.496 11.6023C326.867 11.3333 327.053 11.0114 327.053 10.6364C327.053 10.3333 326.947 10.0795 326.735 9.875C326.523 9.66667 326.197 9.51136 325.758 9.40909L324.303 9.06818C323.504 8.87879 322.917 8.58523 322.542 8.1875C322.17 7.78598 321.985 7.28409 321.985 6.68182C321.985 6.18939 322.123 5.75379 322.4 5.375C322.68 4.99621 323.061 4.69886 323.542 4.48295C324.027 4.26705 324.576 4.15909 325.189 4.15909C326.053 4.15909 326.731 4.34848 327.224 4.72727C327.72 5.10606 328.072 5.60606 328.28 6.22727ZM338.066 13.2045C337.513 13.2045 337.011 13.1004 336.56 12.892C336.11 12.6799 335.752 12.375 335.487 11.9773C335.221 11.5758 335.089 11.0909 335.089 10.5227C335.089 10.0227 335.187 9.61742 335.384 9.30682C335.581 8.99242 335.844 8.74621 336.174 8.56818C336.504 8.39015 336.867 8.25758 337.265 8.17045C337.666 8.07955 338.07 8.00758 338.475 7.95455C339.005 7.88636 339.435 7.83523 339.765 7.80114C340.098 7.76326 340.341 7.70076 340.492 7.61364C340.648 7.52652 340.725 7.375 340.725 7.15909V7.11364C340.725 6.55303 340.572 6.11742 340.265 5.80682C339.962 5.49621 339.502 5.34091 338.884 5.34091C338.244 5.34091 337.742 5.48106 337.379 5.76136C337.015 6.04167 336.759 6.34091 336.612 6.65909L335.339 6.20455C335.566 5.67424 335.869 5.26136 336.248 4.96591C336.63 4.66667 337.047 4.45833 337.498 4.34091C337.952 4.2197 338.399 4.15909 338.839 4.15909C339.119 4.15909 339.441 4.19318 339.805 4.26136C340.172 4.32576 340.526 4.46023 340.867 4.66477C341.212 4.86932 341.498 5.17803 341.725 5.59091C341.952 6.00379 342.066 6.55682 342.066 7.25V13H340.725V11.8182H340.657C340.566 12.0076 340.415 12.2102 340.202 12.4261C339.99 12.642 339.708 12.8258 339.356 12.9773C339.004 13.1288 338.574 13.2045 338.066 13.2045ZM338.271 12C338.801 12 339.248 11.8958 339.612 11.6875C339.979 11.4792 340.255 11.2102 340.441 10.8807C340.63 10.5511 340.725 10.2045 340.725 9.84091V8.61364C340.668 8.68182 340.543 8.74432 340.35 8.80114C340.161 8.85417 339.941 8.90151 339.691 8.94318C339.445 8.98106 339.204 9.01515 338.969 9.04545C338.738 9.07197 338.551 9.0947 338.407 9.11364C338.059 9.15909 337.733 9.23295 337.43 9.33523C337.13 9.43371 336.888 9.58333 336.702 9.78409C336.521 9.98106 336.43 10.25 336.43 10.5909C336.43 11.0568 336.602 11.4091 336.947 11.6477C337.295 11.8826 337.737 12 338.271 12ZM7.40909 32.2273L6.20455 32.5682C6.12879 32.3674 6.01705 32.1723 5.86932 31.983C5.72538 31.7898 5.52841 31.6307 5.27841 31.5057C5.02841 31.3807 4.70833 31.3182 4.31818 31.3182C3.78409 31.3182 3.33902 31.4413 2.98295 31.6875C2.63068 31.9299 2.45455 32.2386 2.45455 32.6136C2.45455 32.947 2.57576 33.2102 2.81818 33.4034C3.06061 33.5966 3.43939 33.7576 3.95455 33.8864L5.25 34.2045C6.0303 34.3939 6.61174 34.6837 6.99432 35.0739C7.37689 35.4602 7.56818 35.9583 7.56818 36.5682C7.56818 37.0682 7.42424 37.5152 7.13636 37.9091C6.85227 38.303 6.45455 38.6136 5.94318 38.8409C5.43182 39.0682 4.83712 39.1818 4.15909 39.1818C3.26894 39.1818 2.5322 38.9886 1.94886 38.6023C1.36553 38.2159 0.996212 37.6515 0.840909 36.9091L2.11364 36.5909C2.23485 37.0606 2.46402 37.4129 2.80114 37.6477C3.14205 37.8826 3.58712 38 4.13636 38C4.76136 38 5.25758 37.8674 5.625 37.6023C5.99621 37.3333 6.18182 37.0114 6.18182 36.6364C6.18182 36.3333 6.07576 36.0795 5.86364 35.875C5.65152 35.6667 5.32576 35.5114 4.88636 35.4091L3.43182 35.0682C2.63258 34.8788 2.04545 34.5852 1.67045 34.1875C1.29924 33.786 1.11364 33.2841 1.11364 32.6818C1.11364 32.1894 1.25189 31.7538 1.52841 31.375C1.80871 30.9962 2.18939 30.6989 2.67045 30.483C3.1553 30.267 3.70455 30.1591 4.31818 30.1591C5.18182 30.1591 5.85985 30.3485 6.35227 30.7273C6.84848 31.1061 7.20076 31.6061 7.40909 32.2273ZM15.3566 35.4318V30.2727H16.6976V39H15.3566V37.5227H15.2657C15.0612 37.9659 14.743 38.3428 14.3112 38.6534C13.8794 38.9602 13.3339 39.1136 12.6748 39.1136C12.1294 39.1136 11.6445 38.9943 11.2203 38.7557C10.796 38.5133 10.4627 38.1496 10.2203 37.6648C9.97786 37.1761 9.85665 36.5606 9.85665 35.8182V30.2727H11.1976V35.7273C11.1976 36.3636 11.3756 36.8712 11.7316 37.25C12.0915 37.6288 12.5498 37.8182 13.1066 37.8182C13.44 37.8182 13.779 37.733 14.1237 37.5625C14.4722 37.392 14.7638 37.1307 14.9987 36.7784C15.2373 36.4261 15.3566 35.9773 15.3566 35.4318ZM19.4235 42.2727V30.2727H20.719V31.6591H20.8781C20.9766 31.5076 21.1129 31.3144 21.2872 31.0795C21.4652 30.8409 21.719 30.6288 22.0485 30.4432C22.3819 30.2538 22.8326 30.1591 23.4008 30.1591C24.1356 30.1591 24.7834 30.3428 25.344 30.7102C25.9046 31.0777 26.3421 31.5985 26.6565 32.2727C26.9709 32.947 27.1281 33.7424 27.1281 34.6591C27.1281 35.5833 26.9709 36.3845 26.6565 37.0625C26.3421 37.7367 25.9065 38.2595 25.3497 38.6307C24.7928 38.9981 24.1508 39.1818 23.4235 39.1818C22.8629 39.1818 22.4141 39.089 22.0769 38.9034C21.7398 38.714 21.4803 38.5 21.2985 38.2614C21.1167 38.0189 20.9766 37.8182 20.8781 37.6591H20.7644V42.2727H19.4235ZM20.7417 34.6364C20.7417 35.2955 20.8383 35.8769 21.0315 36.3807C21.2247 36.8807 21.5069 37.2727 21.8781 37.5568C22.2493 37.8371 22.7038 37.9773 23.2417 37.9773C23.8023 37.9773 24.2701 37.8295 24.6451 37.5341C25.0239 37.2348 25.308 36.8333 25.4974 36.3295C25.6906 35.822 25.7872 35.2576 25.7872 34.6364C25.7872 34.0227 25.6925 33.4697 25.5031 32.9773C25.3175 32.4811 25.0353 32.089 24.6565 31.8011C24.2815 31.5095 23.8099 31.3636 23.2417 31.3636C22.6963 31.3636 22.2379 31.5019 21.8667 31.7784C21.4955 32.0511 21.2152 32.4337 21.0258 32.9261C20.8364 33.4148 20.7417 33.9848 20.7417 34.6364ZM33.1026 39.1818C32.2617 39.1818 31.5363 38.9962 30.9265 38.625C30.3204 38.25 29.8526 37.7273 29.5231 37.0568C29.1973 36.3826 29.0344 35.5985 29.0344 34.7045C29.0344 33.8106 29.1973 33.0227 29.5231 32.3409C29.8526 31.6553 30.3109 31.1212 30.8981 30.7386C31.489 30.3523 32.1784 30.1591 32.9662 30.1591C33.4208 30.1591 33.8697 30.2348 34.3128 30.3864C34.756 30.5379 35.1594 30.7841 35.5231 31.125C35.8867 31.4621 36.1765 31.9091 36.3924 32.4659C36.6083 33.0227 36.7162 33.7083 36.7162 34.5227V35.0909H29.989V33.9318H35.3526C35.3526 33.4394 35.2541 33 35.0572 32.6136C34.864 32.2273 34.5875 31.9223 34.2276 31.6989C33.8716 31.4754 33.4511 31.3636 32.9662 31.3636C32.4322 31.3636 31.97 31.4962 31.5799 31.7614C31.1935 32.0227 30.8962 32.3636 30.6878 32.7841C30.4795 33.2045 30.3753 33.6553 30.3753 34.1364V34.9091C30.3753 35.5682 30.489 36.1269 30.7162 36.5852C30.9473 37.0398 31.2674 37.3864 31.6765 37.625C32.0856 37.8598 32.5609 37.9773 33.1026 37.9773C33.4549 37.9773 33.7731 37.928 34.0572 37.8295C34.345 37.7273 34.5931 37.5758 34.8015 37.375C35.0098 37.1705 35.1708 36.9167 35.2844 36.6136L36.5799 36.9773C36.4435 37.4167 36.2144 37.803 35.8924 38.1364C35.5704 38.4659 35.1727 38.7235 34.6992 38.9091C34.2257 39.0909 33.6935 39.1818 33.1026 39.1818ZM39.026 39V30.2727H40.3215V31.5909H40.4124C40.5715 31.1591 40.8594 30.8087 41.276 30.5398C41.6927 30.2708 42.1624 30.1364 42.6851 30.1364C42.7836 30.1364 42.9067 30.1383 43.0544 30.142C43.2022 30.1458 43.3139 30.1515 43.3897 30.1591V31.5227C43.3442 31.5114 43.24 31.4943 43.0772 31.4716C42.9181 31.4451 42.7495 31.4318 42.5715 31.4318C42.1472 31.4318 41.7684 31.5208 41.4351 31.6989C41.1056 31.8731 40.8442 32.1155 40.651 32.4261C40.4616 32.733 40.3669 33.0833 40.3669 33.4773V39H39.026ZM45.2491 42.2727V30.2727H46.5446V31.6591H46.7037C46.8022 31.5076 46.9385 31.3144 47.1128 31.0795C47.2908 30.8409 47.5446 30.6288 47.8741 30.4432C48.2075 30.2538 48.6582 30.1591 49.2264 30.1591C49.9613 30.1591 50.609 30.3428 51.1696 30.7102C51.7302 31.0777 52.1677 31.5985 52.4821 32.2727C52.7965 32.947 52.9537 33.7424 52.9537 34.6591C52.9537 35.5833 52.7965 36.3845 52.4821 37.0625C52.1677 37.7367 51.7321 38.2595 51.1753 38.6307C50.6185 38.9981 49.9764 39.1818 49.2491 39.1818C48.6885 39.1818 48.2397 39.089 47.9026 38.9034C47.5654 38.714 47.306 38.5 47.1241 38.2614C46.9423 38.0189 46.8022 37.8182 46.7037 37.6591H46.5901V42.2727H45.2491ZM46.5673 34.6364C46.5673 35.2955 46.6639 35.8769 46.8571 36.3807C47.0503 36.8807 47.3325 37.2727 47.7037 37.5568C48.0749 37.8371 48.5294 37.9773 49.0673 37.9773C49.6279 37.9773 50.0957 37.8295 50.4707 37.5341C50.8495 37.2348 51.1336 36.8333 51.323 36.3295C51.5162 35.822 51.6128 35.2576 51.6128 34.6364C51.6128 34.0227 51.5181 33.4697 51.3287 32.9773C51.1431 32.4811 50.8609 32.089 50.4821 31.8011C50.1071 31.5095 49.6355 31.3636 49.0673 31.3636C48.5219 31.3636 48.0635 31.5019 47.6923 31.7784C47.3211 32.0511 47.0408 32.4337 46.8514 32.9261C46.662 33.4148 46.5673 33.9848 46.5673 34.6364ZM58.8146 39.1818C58.0267 39.1818 57.3354 38.9943 56.7407 38.6193C56.1498 38.2443 55.6877 37.7197 55.3544 37.0455C55.0248 36.3712 54.8601 35.5833 54.8601 34.6818C54.8601 33.7727 55.0248 32.9792 55.3544 32.3011C55.6877 31.6231 56.1498 31.0966 56.7407 30.7216C57.3354 30.3466 58.0267 30.1591 58.8146 30.1591C59.6025 30.1591 60.2919 30.3466 60.8828 30.7216C61.4775 31.0966 61.9396 31.6231 62.2691 32.3011C62.6025 32.9792 62.7691 33.7727 62.7691 34.6818C62.7691 35.5833 62.6025 36.3712 62.2691 37.0455C61.9396 37.7197 61.4775 38.2443 60.8828 38.6193C60.2919 38.9943 59.6025 39.1818 58.8146 39.1818ZM58.8146 37.9773C59.4131 37.9773 59.9055 37.8239 60.2919 37.517C60.6782 37.2102 60.9642 36.8068 61.1498 36.3068C61.3354 35.8068 61.4282 35.2652 61.4282 34.6818C61.4282 34.0985 61.3354 33.5549 61.1498 33.0511C60.9642 32.5473 60.6782 32.1402 60.2919 31.8295C59.9055 31.5189 59.4131 31.3636 58.8146 31.3636C58.2161 31.3636 57.7237 31.5189 57.3373 31.8295C56.951 32.1402 56.665 32.5473 56.4794 33.0511C56.2938 33.5549 56.201 34.0985 56.201 34.6818C56.201 35.2652 56.2938 35.8068 56.4794 36.3068C56.665 36.8068 56.951 37.2102 57.3373 37.517C57.7237 37.8239 58.2161 37.9773 58.8146 37.9773ZM66.7664 39L64.1073 30.2727H65.5164L67.4028 36.9545H67.4937L69.3573 30.2727H70.7891L72.6301 36.9318H72.721L74.6073 30.2727H76.0164L73.3573 39H72.0391L70.1301 32.2955H69.9937L68.0846 39H66.7664ZM81.4214 39.1818C80.5805 39.1818 79.8551 38.9962 79.2452 38.625C78.6392 38.25 78.1714 37.7273 77.8418 37.0568C77.5161 36.3826 77.3532 35.5985 77.3532 34.7045C77.3532 33.8106 77.5161 33.0227 77.8418 32.3409C78.1714 31.6553 78.6297 31.1212 79.2168 30.7386C79.8077 30.3523 80.4971 30.1591 81.285 30.1591C81.7395 30.1591 82.1884 30.2348 82.6316 30.3864C83.0748 30.5379 83.4782 30.7841 83.8418 31.125C84.2055 31.4621 84.4952 31.9091 84.7111 32.4659C84.927 33.0227 85.035 33.7083 85.035 34.5227V35.0909H78.3077V33.9318H83.6714C83.6714 33.4394 83.5729 33 83.3759 32.6136C83.1827 32.2273 82.9062 31.9223 82.5464 31.6989C82.1903 31.4754 81.7699 31.3636 81.285 31.3636C80.7509 31.3636 80.2888 31.4962 79.8986 31.7614C79.5123 32.0227 79.2149 32.3636 79.0066 32.7841C78.7983 33.2045 78.6941 33.6553 78.6941 34.1364V34.9091C78.6941 35.5682 78.8077 36.1269 79.035 36.5852C79.2661 37.0398 79.5861 37.3864 79.9952 37.625C80.4043 37.8598 80.8797 37.9773 81.4214 37.9773C81.7736 37.9773 82.0918 37.928 82.3759 37.8295C82.6638 37.7273 82.9119 37.5758 83.1202 37.375C83.3286 37.1705 83.4895 36.9167 83.6032 36.6136L84.8986 36.9773C84.7623 37.4167 84.5331 37.803 84.2111 38.1364C83.8892 38.4659 83.4914 38.7235 83.018 38.9091C82.5445 39.0909 82.0123 39.1818 81.4214 39.1818ZM87.3448 39V30.2727H88.6402V31.5909H88.7311C88.8902 31.1591 89.1781 30.8087 89.5948 30.5398C90.0114 30.2708 90.4811 30.1364 91.0039 30.1364C91.1023 30.1364 91.2255 30.1383 91.3732 30.142C91.5209 30.1458 91.6327 30.1515 91.7084 30.1591V31.5227C91.663 31.5114 91.5588 31.4943 91.3959 31.4716C91.2368 31.4451 91.0683 31.4318 90.8902 31.4318C90.466 31.4318 90.0872 31.5208 89.7539 31.6989C89.4243 31.8731 89.163 32.1155 88.9698 32.4261C88.7804 32.733 88.6857 33.0833 88.6857 33.4773V39H87.3448ZM93.5452 39.0909C93.2649 39.0909 93.0243 38.9905 92.8236 38.7898C92.6228 38.589 92.5224 38.3485 92.5224 38.0682C92.5224 37.7879 92.6228 37.5473 92.8236 37.3466C93.0243 37.1458 93.2649 37.0455 93.5452 37.0455C93.8255 37.0455 94.066 37.1458 94.2668 37.3466C94.4675 37.5473 94.5679 37.7879 94.5679 38.0682C94.5679 38.2538 94.5205 38.4242 94.4258 38.5795C94.3349 38.7348 94.2118 38.8598 94.0565 38.9545C93.905 39.0455 93.7346 39.0909 93.5452 39.0909ZM112.014 33.1818C112.014 34.4091 111.793 35.4697 111.349 36.3636C110.906 37.2576 110.298 37.947 109.526 38.4318C108.753 38.9167 107.87 39.1591 106.878 39.1591C105.885 39.1591 105.003 38.9167 104.23 38.4318C103.457 37.947 102.849 37.2576 102.406 36.3636C101.963 35.4697 101.741 34.4091 101.741 33.1818C101.741 31.9545 101.963 30.8939 102.406 30C102.849 29.1061 103.457 28.4167 104.23 27.9318C105.003 27.447 105.885 27.2045 106.878 27.2045C107.87 27.2045 108.753 27.447 109.526 27.9318C110.298 28.4167 110.906 29.1061 111.349 30C111.793 30.8939 112.014 31.9545 112.014 33.1818ZM110.651 33.1818C110.651 32.1742 110.482 31.3239 110.145 30.6307C109.811 29.9375 109.359 29.4129 108.787 29.0568C108.219 28.7008 107.582 28.5227 106.878 28.5227C106.173 28.5227 105.535 28.7008 104.963 29.0568C104.395 29.4129 103.942 29.9375 103.605 30.6307C103.272 31.3239 103.105 32.1742 103.105 33.1818C103.105 34.1894 103.272 35.0398 103.605 35.733C103.942 36.4261 104.395 36.9508 104.963 37.3068C105.535 37.6629 106.173 37.8409 106.878 37.8409C107.582 37.8409 108.219 37.6629 108.787 37.3068C109.359 36.9508 109.811 36.4261 110.145 35.733C110.482 35.0398 110.651 34.1894 110.651 33.1818ZM114.472 42.2727V30.2727H115.767V31.6591H115.926C116.025 31.5076 116.161 31.3144 116.335 31.0795C116.513 30.8409 116.767 30.6288 117.097 30.4432C117.43 30.2538 117.881 30.1591 118.449 30.1591C119.184 30.1591 119.831 30.3428 120.392 30.7102C120.953 31.0777 121.39 31.5985 121.705 32.2727C122.019 32.947 122.176 33.7424 122.176 34.6591C122.176 35.5833 122.019 36.3845 121.705 37.0625C121.39 37.7367 120.955 38.2595 120.398 38.6307C119.841 38.9981 119.199 39.1818 118.472 39.1818C117.911 39.1818 117.462 39.089 117.125 38.9034C116.788 38.714 116.528 38.5 116.347 38.2614C116.165 38.0189 116.025 37.8182 115.926 37.6591H115.813V42.2727H114.472ZM115.79 34.6364C115.79 35.2955 115.886 35.8769 116.08 36.3807C116.273 36.8807 116.555 37.2727 116.926 37.5568C117.297 37.8371 117.752 37.9773 118.29 37.9773C118.85 37.9773 119.318 37.8295 119.693 37.5341C120.072 37.2348 120.356 36.8333 120.546 36.3295C120.739 35.822 120.835 35.2576 120.835 34.6364C120.835 34.0227 120.741 33.4697 120.551 32.9773C120.366 32.4811 120.083 32.089 119.705 31.8011C119.33 31.5095 118.858 31.3636 118.29 31.3636C117.744 31.3636 117.286 31.5019 116.915 31.7784C116.544 32.0511 116.263 32.4337 116.074 32.9261C115.885 33.4148 115.79 33.9848 115.79 34.6364ZM128.287 30.2727V31.4091H123.764V30.2727H128.287ZM125.083 28.1818H126.423V36.5C126.423 36.8788 126.478 37.1629 126.588 37.3523C126.702 37.5379 126.846 37.6629 127.02 37.7273C127.198 37.7879 127.386 37.8182 127.583 37.8182C127.73 37.8182 127.851 37.8106 127.946 37.7955C128.041 37.7765 128.117 37.7614 128.173 37.75L128.446 38.9545C128.355 38.9886 128.228 39.0227 128.066 39.0568C127.903 39.0947 127.696 39.1136 127.446 39.1136C127.067 39.1136 126.696 39.0322 126.333 38.8693C125.973 38.7064 125.673 38.4583 125.435 38.125C125.2 37.7917 125.083 37.3712 125.083 36.8636V28.1818ZM130.574 39V30.2727H131.915V39H130.574ZM131.256 28.8182C130.995 28.8182 130.769 28.7292 130.58 28.5511C130.394 28.3731 130.301 28.1591 130.301 27.9091C130.301 27.6591 130.394 27.4451 130.58 27.267C130.769 27.089 130.995 27 131.256 27C131.517 27 131.741 27.089 131.926 27.267C132.116 27.4451 132.211 27.6591 132.211 27.9091C132.211 28.1591 132.116 28.3731 131.926 28.5511C131.741 28.7292 131.517 28.8182 131.256 28.8182ZM134.641 39V30.2727H135.936V31.6364H136.05C136.232 31.1705 136.525 30.8087 136.931 30.5511C137.336 30.2898 137.823 30.1591 138.391 30.1591C138.967 30.1591 139.446 30.2898 139.829 30.5511C140.215 30.8087 140.516 31.1705 140.732 31.6364H140.823C141.046 31.1856 141.382 30.8277 141.829 30.5625C142.276 30.2936 142.811 30.1591 143.436 30.1591C144.217 30.1591 144.855 30.4034 145.351 30.892C145.847 31.3769 146.096 32.1326 146.096 33.1591V39H144.755V33.1591C144.755 32.5152 144.579 32.0549 144.226 31.7784C143.874 31.5019 143.459 31.3636 142.982 31.3636C142.368 31.3636 141.893 31.5492 141.556 31.9205C141.219 32.2879 141.05 32.7538 141.05 33.3182V39H139.686V33.0227C139.686 32.5265 139.525 32.1269 139.204 31.8239C138.882 31.517 138.467 31.3636 137.959 31.3636C137.611 31.3636 137.285 31.4564 136.982 31.642C136.683 31.8277 136.44 32.0852 136.255 32.4148C136.073 32.7405 135.982 33.1174 135.982 33.5455V39H134.641ZM148.817 39V30.2727H150.158V39H148.817ZM149.499 28.8182C149.238 28.8182 149.012 28.7292 148.823 28.5511C148.637 28.3731 148.545 28.1591 148.545 27.9091C148.545 27.6591 148.637 27.4451 148.823 27.267C149.012 27.089 149.238 27 149.499 27C149.76 27 149.984 27.089 150.17 27.267C150.359 27.4451 150.454 27.6591 150.454 27.9091C150.454 28.1591 150.359 28.3731 150.17 28.5511C149.984 28.7292 149.76 28.8182 149.499 28.8182ZM152.634 39V37.9773L157.589 31.6136V31.5227H152.793V30.2727H159.316V31.3409L154.498 37.6591V37.75H159.475V39H152.634ZM165.219 39.1818C164.379 39.1818 163.653 38.9962 163.043 38.625C162.437 38.25 161.969 37.7273 161.64 37.0568C161.314 36.3826 161.151 35.5985 161.151 34.7045C161.151 33.8106 161.314 33.0227 161.64 32.3409C161.969 31.6553 162.428 31.1212 163.015 30.7386C163.606 30.3523 164.295 30.1591 165.083 30.1591C165.538 30.1591 165.987 30.2348 166.43 30.3864C166.873 30.5379 167.276 30.7841 167.64 31.125C168.004 31.4621 168.293 31.9091 168.509 32.4659C168.725 33.0227 168.833 33.7083 168.833 34.5227V35.0909H162.106V33.9318H167.469C167.469 33.4394 167.371 33 167.174 32.6136C166.981 32.2273 166.704 31.9223 166.344 31.6989C165.988 31.4754 165.568 31.3636 165.083 31.3636C164.549 31.3636 164.087 31.4962 163.697 31.7614C163.31 32.0227 163.013 32.3636 162.805 32.7841C162.596 33.2045 162.492 33.6553 162.492 34.1364V34.9091C162.492 35.5682 162.606 36.1269 162.833 36.5852C163.064 37.0398 163.384 37.3864 163.793 37.625C164.202 37.8598 164.678 37.9773 165.219 37.9773C165.572 37.9773 165.89 37.928 166.174 37.8295C166.462 37.7273 166.71 37.5758 166.918 37.375C167.127 37.1705 167.288 36.9167 167.401 36.6136L168.697 36.9773C168.56 37.4167 168.331 37.803 168.009 38.1364C167.687 38.4659 167.29 38.7235 166.816 38.9091C166.343 39.0909 165.81 39.1818 165.219 39.1818ZM176.777 42.2727C176.549 42.2727 176.347 42.2538 176.169 42.2159C175.991 42.1818 175.867 42.1477 175.799 42.1136L176.14 40.9318C176.466 41.0152 176.754 41.0455 177.004 41.0227C177.254 41 177.475 40.8883 177.669 40.6875C177.866 40.4905 178.045 40.1705 178.208 39.7273L178.458 39.0455L175.231 30.2727H176.686L179.095 37.2273H179.186L181.595 30.2727H183.049L179.345 40.2727C179.178 40.7235 178.972 41.0966 178.725 41.392C178.479 41.6913 178.193 41.9129 177.867 42.0568C177.545 42.2008 177.182 42.2727 176.777 42.2727ZM188.322 39.1818C187.534 39.1818 186.843 38.9943 186.248 38.6193C185.657 38.2443 185.195 37.7197 184.862 37.0455C184.532 36.3712 184.368 35.5833 184.368 34.6818C184.368 33.7727 184.532 32.9792 184.862 32.3011C185.195 31.6231 185.657 31.0966 186.248 30.7216C186.843 30.3466 187.534 30.1591 188.322 30.1591C189.11 30.1591 189.799 30.3466 190.39 30.7216C190.985 31.0966 191.447 31.6231 191.777 32.3011C192.11 32.9792 192.277 33.7727 192.277 34.6818C192.277 35.5833 192.11 36.3712 191.777 37.0455C191.447 37.7197 190.985 38.2443 190.39 38.6193C189.799 38.9943 189.11 39.1818 188.322 39.1818ZM188.322 37.9773C188.921 37.9773 189.413 37.8239 189.799 37.517C190.186 37.2102 190.472 36.8068 190.657 36.3068C190.843 35.8068 190.936 35.2652 190.936 34.6818C190.936 34.0985 190.843 33.5549 190.657 33.0511C190.472 32.5473 190.186 32.1402 189.799 31.8295C189.413 31.5189 188.921 31.3636 188.322 31.3636C187.724 31.3636 187.231 31.5189 186.845 31.8295C186.458 32.1402 186.172 32.5473 185.987 33.0511C185.801 33.5549 185.708 34.0985 185.708 34.6818C185.708 35.2652 185.801 35.8068 185.987 36.3068C186.172 36.8068 186.458 37.2102 186.845 37.517C187.231 37.8239 187.724 37.9773 188.322 37.9773ZM200.094 35.4318V30.2727H201.434V39H200.094V37.5227H200.003C199.798 37.9659 199.48 38.3428 199.048 38.6534C198.616 38.9602 198.071 39.1136 197.412 39.1136C196.866 39.1136 196.381 38.9943 195.957 38.7557C195.533 38.5133 195.2 38.1496 194.957 37.6648C194.715 37.1761 194.594 36.5606 194.594 35.8182V30.2727H195.934V35.7273C195.934 36.3636 196.112 36.8712 196.469 37.25C196.828 37.6288 197.287 37.8182 197.844 37.8182C198.177 37.8182 198.516 37.733 198.861 37.5625C199.209 37.392 199.501 37.1307 199.736 36.7784C199.974 36.4261 200.094 35.9773 200.094 35.4318ZM204.16 39V30.2727H205.456V31.5909H205.547C205.706 31.1591 205.994 30.8087 206.41 30.5398C206.827 30.2708 207.297 30.1364 207.819 30.1364C207.918 30.1364 208.041 30.1383 208.189 30.142C208.337 30.1458 208.448 30.1515 208.524 30.1591V31.5227C208.479 31.5114 208.374 31.4943 208.212 31.4716C208.052 31.4451 207.884 31.4318 207.706 31.4318C207.282 31.4318 206.903 31.5208 206.569 31.6989C206.24 31.8731 205.979 32.1155 205.785 32.4261C205.596 32.733 205.501 33.0833 205.501 33.4773V39H204.16ZM215.154 39V30.2727H216.449V31.5909H216.54C216.699 31.1591 216.987 30.8087 217.404 30.5398C217.82 30.2708 218.29 30.1364 218.813 30.1364C218.911 30.1364 219.034 30.1383 219.182 30.142C219.33 30.1458 219.441 30.1515 219.517 30.1591V31.5227C219.472 31.5114 219.368 31.4943 219.205 31.4716C219.046 31.4451 218.877 31.4318 218.699 31.4318C218.275 31.4318 217.896 31.5208 217.563 31.6989C217.233 31.8731 216.972 32.1155 216.779 32.4261C216.589 32.733 216.494 33.0833 216.494 33.4773V39H215.154ZM224.77 39.1818C223.929 39.1818 223.204 38.9962 222.594 38.625C221.988 38.25 221.52 37.7273 221.191 37.0568C220.865 36.3826 220.702 35.5985 220.702 34.7045C220.702 33.8106 220.865 33.0227 221.191 32.3409C221.52 31.6553 221.978 31.1212 222.566 30.7386C223.156 30.3523 223.846 30.1591 224.634 30.1591C225.088 30.1591 225.537 30.2348 225.98 30.3864C226.424 30.5379 226.827 30.7841 227.191 31.125C227.554 31.4621 227.844 31.9091 228.06 32.4659C228.276 33.0227 228.384 33.7083 228.384 34.5227V35.0909H221.656V33.9318H227.02C227.02 33.4394 226.922 33 226.725 32.6136C226.531 32.2273 226.255 31.9223 225.895 31.6989C225.539 31.4754 225.119 31.3636 224.634 31.3636C224.1 31.3636 223.638 31.4962 223.247 31.7614C222.861 32.0227 222.564 32.3636 222.355 32.7841C222.147 33.2045 222.043 33.6553 222.043 34.1364V34.9091C222.043 35.5682 222.156 36.1269 222.384 36.5852C222.615 37.0398 222.935 37.3864 223.344 37.625C223.753 37.8598 224.228 37.9773 224.77 37.9773C225.122 37.9773 225.441 37.928 225.725 37.8295C226.013 37.7273 226.261 37.5758 226.469 37.375C226.677 37.1705 226.838 36.9167 226.952 36.6136L228.247 36.9773C228.111 37.4167 227.882 37.803 227.56 38.1364C227.238 38.4659 226.84 38.7235 226.367 38.9091C225.893 39.0909 225.361 39.1818 224.77 39.1818ZM233.262 39.2045C232.709 39.2045 232.207 39.1004 231.756 38.892C231.305 38.6799 230.947 38.375 230.682 37.9773C230.417 37.5758 230.284 37.0909 230.284 36.5227C230.284 36.0227 230.383 35.6174 230.58 35.3068C230.777 34.9924 231.04 34.7462 231.37 34.5682C231.699 34.3902 232.063 34.2576 232.461 34.1705C232.862 34.0795 233.265 34.0076 233.671 33.9545C234.201 33.8864 234.631 33.8352 234.961 33.8011C235.294 33.7633 235.536 33.7008 235.688 33.6136C235.843 33.5265 235.921 33.375 235.921 33.1591V33.1136C235.921 32.553 235.767 32.1174 235.461 31.8068C235.158 31.4962 234.697 31.3409 234.08 31.3409C233.44 31.3409 232.938 31.4811 232.574 31.7614C232.211 32.0417 231.955 32.3409 231.807 32.6591L230.534 32.2045C230.762 31.6742 231.065 31.2614 231.444 30.9659C231.826 30.6667 232.243 30.4583 232.694 30.3409C233.148 30.2197 233.595 30.1591 234.034 30.1591C234.315 30.1591 234.637 30.1932 235 30.2614C235.368 30.3258 235.722 30.4602 236.063 30.6648C236.408 30.8693 236.694 31.178 236.921 31.5909C237.148 32.0038 237.262 32.5568 237.262 33.25V39H235.921V37.8182H235.853C235.762 38.0076 235.61 38.2102 235.398 38.4261C235.186 38.642 234.904 38.8258 234.551 38.9773C234.199 39.1288 233.769 39.2045 233.262 39.2045ZM233.466 38C233.997 38 234.444 37.8958 234.807 37.6875C235.175 37.4792 235.451 37.2102 235.637 36.8807C235.826 36.5511 235.921 36.2045 235.921 35.8409V34.6136C235.864 34.6818 235.739 34.7443 235.546 34.8011C235.356 34.8542 235.137 34.9015 234.887 34.9432C234.64 34.9811 234.4 35.0152 234.165 35.0455C233.934 35.072 233.747 35.0947 233.603 35.1136C233.254 35.1591 232.928 35.233 232.625 35.3352C232.326 35.4337 232.084 35.5833 231.898 35.7841C231.716 35.9811 231.625 36.25 231.625 36.5909C231.625 37.0568 231.798 37.4091 232.142 37.6477C232.491 37.8826 232.932 38 233.466 38ZM243.275 39.1818C242.547 39.1818 241.905 38.9981 241.348 38.6307C240.792 38.2595 240.356 37.7367 240.042 37.0625C239.727 36.3845 239.57 35.5833 239.57 34.6591C239.57 33.7424 239.727 32.947 240.042 32.2727C240.356 31.5985 240.794 31.0777 241.354 30.7102C241.915 30.3428 242.562 30.1591 243.297 30.1591C243.866 30.1591 244.314 30.2538 244.644 30.4432C244.977 30.6288 245.231 30.8409 245.405 31.0795C245.583 31.3144 245.722 31.5076 245.82 31.6591H245.934V27.3636H247.275V39H245.979V37.6591H245.82C245.722 37.8182 245.581 38.0189 245.4 38.2614C245.218 38.5 244.958 38.714 244.621 38.9034C244.284 39.089 243.835 39.1818 243.275 39.1818ZM243.456 37.9773C243.994 37.9773 244.449 37.8371 244.82 37.5568C245.191 37.2727 245.473 36.8807 245.667 36.3807C245.86 35.8769 245.956 35.2955 245.956 34.6364C245.956 33.9848 245.862 33.4148 245.672 32.9261C245.483 32.4337 245.203 32.0511 244.831 31.7784C244.46 31.5019 244.002 31.3636 243.456 31.3636C242.888 31.3636 242.415 31.5095 242.036 31.8011C241.661 32.089 241.379 32.4811 241.189 32.9773C241.004 33.4697 240.911 34.0227 240.911 34.6364C240.911 35.2576 241.006 35.822 241.195 36.3295C241.388 36.8333 241.672 37.2348 242.047 37.5341C242.426 37.8295 242.896 37.9773 243.456 37.9773ZM250.187 39V30.2727H251.528V39H250.187ZM250.868 28.8182C250.607 28.8182 250.382 28.7292 250.192 28.5511C250.007 28.3731 249.914 28.1591 249.914 27.9091C249.914 27.6591 250.007 27.4451 250.192 27.267C250.382 27.089 250.607 27 250.868 27C251.13 27 251.353 27.089 251.539 27.267C251.728 27.4451 251.823 27.6591 251.823 27.9091C251.823 28.1591 251.728 28.3731 251.539 28.5511C251.353 28.7292 251.13 28.8182 250.868 28.8182ZM255.594 33.75V39H254.254V30.2727H255.549V31.6364H255.663C255.867 31.1932 256.178 30.8371 256.594 30.5682C257.011 30.2955 257.549 30.1591 258.208 30.1591C258.799 30.1591 259.316 30.2803 259.759 30.5227C260.202 30.7614 260.547 31.125 260.793 31.6136C261.04 32.0985 261.163 32.7121 261.163 33.4545V39H259.822V33.5455C259.822 32.8598 259.644 32.3258 259.288 31.9432C258.932 31.5568 258.443 31.3636 257.822 31.3636C257.394 31.3636 257.011 31.4564 256.674 31.642C256.341 31.8277 256.077 32.0985 255.884 32.4545C255.691 32.8106 255.594 33.2424 255.594 33.75ZM267.406 42.4545C266.758 42.4545 266.201 42.3712 265.735 42.2045C265.269 42.0417 264.881 41.8258 264.57 41.5568C264.264 41.2917 264.019 41.0076 263.837 40.7045L264.906 39.9545C265.027 40.1136 265.18 40.2955 265.366 40.5C265.551 40.7083 265.805 40.8883 266.127 41.0398C266.453 41.1951 266.879 41.2727 267.406 41.2727C268.11 41.2727 268.692 41.1023 269.15 40.7614C269.608 40.4205 269.837 39.8864 269.837 39.1591V37.3864H269.724C269.625 37.5455 269.485 37.7424 269.303 37.9773C269.125 38.2083 268.868 38.4148 268.531 38.5966C268.197 38.7746 267.747 38.8636 267.178 38.8636C266.474 38.8636 265.841 38.697 265.281 38.3636C264.724 38.0303 264.283 37.5455 263.957 36.9091C263.635 36.2727 263.474 35.5 263.474 34.5909C263.474 33.697 263.631 32.9186 263.945 32.2557C264.26 31.589 264.697 31.0739 265.258 30.7102C265.819 30.3428 266.466 30.1591 267.201 30.1591C267.769 30.1591 268.22 30.2538 268.553 30.4432C268.89 30.6288 269.148 30.8409 269.326 31.0795C269.508 31.3144 269.648 31.5076 269.747 31.6591H269.883V30.2727H271.178V39.25C271.178 40 271.008 40.6098 270.667 41.0795C270.33 41.553 269.875 41.8996 269.303 42.1193C268.735 42.3428 268.103 42.4545 267.406 42.4545ZM267.36 37.6591C267.898 37.6591 268.353 37.536 268.724 37.2898C269.095 37.0436 269.377 36.6894 269.57 36.2273C269.764 35.7652 269.86 35.2121 269.86 34.5682C269.86 33.9394 269.765 33.3845 269.576 32.9034C269.387 32.4223 269.106 32.0455 268.735 31.7727C268.364 31.5 267.906 31.3636 267.36 31.3636C266.792 31.3636 266.319 31.5076 265.94 31.7955C265.565 32.0833 265.283 32.4697 265.093 32.9545C264.908 33.4394 264.815 33.9773 264.815 34.5682C264.815 35.1742 264.909 35.7102 265.099 36.1761C265.292 36.6383 265.576 37.0019 265.951 37.267C266.33 37.5284 266.8 37.6591 267.36 37.6591ZM284.855 32.2273L283.65 32.5682C283.574 32.3674 283.463 32.1723 283.315 31.983C283.171 31.7898 282.974 31.6307 282.724 31.5057C282.474 31.3807 282.154 31.3182 281.764 31.3182C281.23 31.3182 280.785 31.4413 280.429 31.6875C280.076 31.9299 279.9 32.2386 279.9 32.6136C279.9 32.947 280.021 33.2102 280.264 33.4034C280.506 33.5966 280.885 33.7576 281.4 33.8864L282.696 34.2045C283.476 34.3939 284.057 34.6837 284.44 35.0739C284.823 35.4602 285.014 35.9583 285.014 36.5682C285.014 37.0682 284.87 37.5152 284.582 37.9091C284.298 38.303 283.9 38.6136 283.389 38.8409C282.877 39.0682 282.283 39.1818 281.605 39.1818C280.715 39.1818 279.978 38.9886 279.394 38.6023C278.811 38.2159 278.442 37.6515 278.287 36.9091L279.559 36.5909C279.68 37.0606 279.91 37.4129 280.247 37.6477C280.588 37.8826 281.033 38 281.582 38C282.207 38 282.703 37.8674 283.071 37.6023C283.442 37.3333 283.627 37.0114 283.627 36.6364C283.627 36.3333 283.521 36.0795 283.309 35.875C283.097 35.6667 282.771 35.5114 282.332 35.4091L280.877 35.0682C280.078 34.8788 279.491 34.5852 279.116 34.1875C278.745 33.786 278.559 33.2841 278.559 32.6818C278.559 32.1894 278.698 31.7538 278.974 31.375C279.254 30.9962 279.635 30.6989 280.116 30.483C280.601 30.267 281.15 30.1591 281.764 30.1591C282.627 30.1591 283.305 30.3485 283.798 30.7273C284.294 31.1061 284.646 31.6061 284.855 32.2273ZM288.552 35.8182L288.53 34.1591H288.802L292.62 30.2727H294.28L290.211 34.3864H290.098L288.552 35.8182ZM287.302 39V27.3636H288.643V39H287.302ZM292.848 39L289.439 34.6818L290.393 33.75L294.552 39H292.848ZM296.275 39V30.2727H297.616V39H296.275ZM296.957 28.8182C296.696 28.8182 296.47 28.7292 296.281 28.5511C296.095 28.3731 296.003 28.1591 296.003 27.9091C296.003 27.6591 296.095 27.4451 296.281 27.267C296.47 27.089 296.696 27 296.957 27C297.219 27 297.442 27.089 297.628 27.267C297.817 27.4451 297.912 27.6591 297.912 27.9091C297.912 28.1591 297.817 28.3731 297.628 28.5511C297.442 28.7292 297.219 28.8182 296.957 28.8182ZM301.683 27.3636V39H300.342V27.3636H301.683ZM305.75 27.3636V39H304.409V27.3636H305.75ZM314.658 32.2273L313.453 32.5682C313.378 32.3674 313.266 32.1723 313.118 31.983C312.974 31.7898 312.777 31.6307 312.527 31.5057C312.277 31.3807 311.957 31.3182 311.567 31.3182C311.033 31.3182 310.588 31.4413 310.232 31.6875C309.879 31.9299 309.703 32.2386 309.703 32.6136C309.703 32.947 309.825 33.2102 310.067 33.4034C310.309 33.5966 310.688 33.7576 311.203 33.8864L312.499 34.2045C313.279 34.3939 313.86 34.6837 314.243 35.0739C314.626 35.4602 314.817 35.9583 314.817 36.5682C314.817 37.0682 314.673 37.5152 314.385 37.9091C314.101 38.303 313.703 38.6136 313.192 38.8409C312.681 39.0682 312.086 39.1818 311.408 39.1818C310.518 39.1818 309.781 38.9886 309.198 38.6023C308.614 38.2159 308.245 37.6515 308.09 36.9091L309.362 36.5909C309.484 37.0606 309.713 37.4129 310.05 37.6477C310.391 37.8826 310.836 38 311.385 38C312.01 38 312.506 37.8674 312.874 37.6023C313.245 37.3333 313.431 37.0114 313.431 36.6364C313.431 36.3333 313.325 36.0795 313.112 35.875C312.9 35.6667 312.575 35.5114 312.135 35.4091L310.681 35.0682C309.881 34.8788 309.294 34.5852 308.919 34.1875C308.548 33.786 308.362 33.2841 308.362 32.6818C308.362 32.1894 308.501 31.7538 308.777 31.375C309.057 30.9962 309.438 30.6989 309.919 30.483C310.404 30.267 310.953 30.1591 311.567 30.1591C312.431 30.1591 313.109 30.3485 313.601 30.7273C314.097 31.1061 314.45 31.6061 314.658 32.2273ZM319.105 37.4091L319.014 38.0227C318.95 38.4545 318.852 38.9167 318.719 39.4091C318.59 39.9015 318.456 40.3655 318.316 40.8011C318.175 41.2367 318.06 41.5833 317.969 41.8409H316.946C316.996 41.5985 317.06 41.2784 317.139 40.8807C317.219 40.483 317.299 40.0379 317.378 39.5455C317.461 39.0568 317.53 38.5568 317.583 38.0455L317.651 37.4091H319.105ZM1.22727 64V55.2727H2.52273V56.5909H2.61364C2.77273 56.1591 3.06061 55.8087 3.47727 55.5398C3.89394 55.2708 4.36364 55.1364 4.88636 55.1364C4.98485 55.1364 5.10795 55.1383 5.25568 55.142C5.40341 55.1458 5.51515 55.1515 5.59091 55.1591V56.5227C5.54545 56.5114 5.44129 56.4943 5.27841 56.4716C5.11932 56.4451 4.95076 56.4318 4.77273 56.4318C4.34849 56.4318 3.9697 56.5208 3.63636 56.6989C3.30682 56.8731 3.04545 57.1155 2.85227 57.4261C2.66288 57.733 2.56818 58.0833 2.56818 58.4773V64H1.22727ZM10.8439 64.1818C10.003 64.1818 9.27758 63.9962 8.66773 63.625C8.06167 63.25 7.59386 62.7273 7.26432 62.0568C6.93856 61.3826 6.77568 60.5985 6.77568 59.7045C6.77568 58.8106 6.93856 58.0227 7.26432 57.3409C7.59386 56.6553 8.0522 56.1212 8.63932 55.7386C9.23023 55.3523 9.91962 55.1591 10.7075 55.1591C11.162 55.1591 11.6109 55.2348 12.0541 55.3864C12.4973 55.5379 12.9007 55.7841 13.2643 56.125C13.628 56.4621 13.9177 56.9091 14.1336 57.4659C14.3495 58.0227 14.4575 58.7083 14.4575 59.5227V60.0909H7.73023V58.9318H13.0939C13.0939 58.4394 12.9954 58 12.7984 57.6136C12.6052 57.2273 12.3287 56.9223 11.9689 56.6989C11.6128 56.4754 11.1923 56.3636 10.7075 56.3636C10.1734 56.3636 9.71129 56.4962 9.32114 56.7614C8.93477 57.0227 8.63742 57.3636 8.42909 57.7841C8.22076 58.2045 8.11659 58.6553 8.11659 59.1364V59.9091C8.11659 60.5682 8.23023 61.1269 8.4575 61.5852C8.68856 62.0398 9.00864 62.3864 9.41773 62.625C9.82682 62.8598 10.3022 62.9773 10.8439 62.9773C11.1961 62.9773 11.5143 62.928 11.7984 62.8295C12.0863 62.7273 12.3344 62.5758 12.5427 62.375C12.7511 62.1705 12.912 61.9167 13.0257 61.6136L14.3211 61.9773C14.1848 62.4167 13.9556 62.803 13.6336 63.1364C13.3117 63.4659 12.9139 63.7235 12.4405 63.9091C11.967 64.0909 11.4348 64.1818 10.8439 64.1818ZM19.3355 64.2045C18.7824 64.2045 18.2805 64.1004 17.8298 63.892C17.379 63.6799 17.0211 63.375 16.7559 62.9773C16.4908 62.5758 16.3582 62.0909 16.3582 61.5227C16.3582 61.0227 16.4567 60.6174 16.6536 60.3068C16.8506 59.9924 17.1139 59.7462 17.4434 59.5682C17.773 59.3902 18.1366 59.2576 18.5343 59.1705C18.9358 59.0795 19.3392 59.0076 19.7445 58.9545C20.2748 58.8864 20.7048 58.8352 21.0343 58.8011C21.3677 58.7633 21.6101 58.7008 21.7616 58.6136C21.9169 58.5265 21.9945 58.375 21.9945 58.1591V58.1136C21.9945 57.553 21.8411 57.1174 21.5343 56.8068C21.2313 56.4962 20.7711 56.3409 20.1536 56.3409C19.5135 56.3409 19.0116 56.4811 18.648 56.7614C18.2843 57.0417 18.0286 57.3409 17.8809 57.6591L16.6082 57.2045C16.8355 56.6742 17.1385 56.2614 17.5173 55.9659C17.8998 55.6667 18.3165 55.4583 18.7673 55.3409C19.2218 55.2197 19.6688 55.1591 20.1082 55.1591C20.3885 55.1591 20.7105 55.1932 21.0741 55.2614C21.4415 55.3258 21.7957 55.4602 22.1366 55.6648C22.4813 55.8693 22.7673 56.178 22.9945 56.5909C23.2218 57.0038 23.3355 57.5568 23.3355 58.25V64H21.9945V62.8182H21.9264C21.8355 63.0076 21.6839 63.2102 21.4718 63.4261C21.2597 63.642 20.9775 63.8258 20.6252 63.9773C20.273 64.1288 19.843 64.2045 19.3355 64.2045ZM19.54 63C20.0703 63 20.5173 62.8958 20.8809 62.6875C21.2483 62.4792 21.5248 62.2102 21.7105 61.8807C21.8998 61.5511 21.9945 61.2045 21.9945 60.8409V59.6136C21.9377 59.6818 21.8127 59.7443 21.6195 59.8011C21.4302 59.8542 21.2105 59.9015 20.9605 59.9432C20.7142 59.9811 20.4737 60.0152 20.2389 60.0455C20.0078 60.072 19.8203 60.0947 19.6764 60.1136C19.3279 60.1591 19.0021 60.233 18.6991 60.3352C18.3998 60.4337 18.1574 60.5833 17.9718 60.7841C17.79 60.9811 17.6991 61.25 17.6991 61.5909C17.6991 62.0568 17.8714 62.4091 18.2161 62.6477C18.5646 62.8826 19.0059 63 19.54 63ZM29.3484 64.1818C28.6211 64.1818 27.979 63.9981 27.4222 63.6307C26.8654 63.2595 26.4298 62.7367 26.1154 62.0625C25.801 61.3845 25.6438 60.5833 25.6438 59.6591C25.6438 58.7424 25.801 57.947 26.1154 57.2727C26.4298 56.5985 26.8673 56.0777 27.4279 55.7102C27.9885 55.3428 28.6362 55.1591 29.3711 55.1591C29.9393 55.1591 30.3881 55.2538 30.7177 55.4432C31.051 55.6288 31.3048 55.8409 31.479 56.0795C31.6571 56.3144 31.7953 56.5076 31.8938 56.6591H32.0074V52.3636H33.3484V64H32.0529V62.6591H31.8938C31.7953 62.8182 31.6552 63.0189 31.4734 63.2614C31.2915 63.5 31.0321 63.714 30.6949 63.9034C30.3578 64.089 29.909 64.1818 29.3484 64.1818ZM29.5302 62.9773C30.068 62.9773 30.5226 62.8371 30.8938 62.5568C31.265 62.2727 31.5472 61.8807 31.7404 61.3807C31.9336 60.8769 32.0302 60.2955 32.0302 59.6364C32.0302 58.9848 31.9355 58.4148 31.7461 57.9261C31.5567 57.4337 31.2764 57.0511 30.9052 56.7784C30.534 56.5019 30.0756 56.3636 29.5302 56.3636C28.962 56.3636 28.4885 56.5095 28.1097 56.8011C27.7347 57.089 27.4525 57.4811 27.2631 57.9773C27.0775 58.4697 26.9847 59.0227 26.9847 59.6364C26.9847 60.2576 27.0794 60.822 27.2688 61.3295C27.462 61.8333 27.7461 62.2348 28.1211 62.5341C28.4999 62.8295 28.9696 62.9773 29.5302 62.9773ZM44.9168 55.2727V56.4091H40.2122V55.2727H44.9168ZM41.6213 64V54.0682C41.6213 53.5682 41.7387 53.1515 41.9736 52.8182C42.2084 52.4848 42.5134 52.2348 42.8884 52.0682C43.2634 51.9015 43.6592 51.8182 44.0759 51.8182C44.4054 51.8182 44.6743 51.8447 44.8827 51.8977C45.091 51.9508 45.2463 52 45.3486 52.0455L44.9622 53.2045C44.894 53.1818 44.7993 53.1534 44.6781 53.1193C44.5607 53.0852 44.4054 53.0682 44.2122 53.0682C43.769 53.0682 43.449 53.1799 43.252 53.4034C43.0588 53.6269 42.9622 53.9545 42.9622 54.3864V64H41.6213ZM49.3842 64.2045C48.8312 64.2045 48.3293 64.1004 47.8785 63.892C47.4278 63.6799 47.0698 63.375 46.8047 62.9773C46.5395 62.5758 46.4069 62.0909 46.4069 61.5227C46.4069 61.0227 46.5054 60.6174 46.7024 60.3068C46.8994 59.9924 47.1626 59.7462 47.4922 59.5682C47.8217 59.3902 48.1853 59.2576 48.5831 59.1705C48.9846 59.0795 49.388 59.0076 49.7933 58.9545C50.3236 58.8864 50.7535 58.8352 51.0831 58.8011C51.4164 58.7633 51.6588 58.7008 51.8103 58.6136C51.9656 58.5265 52.0433 58.375 52.0433 58.1591V58.1136C52.0433 57.553 51.8899 57.1174 51.5831 56.8068C51.28 56.4962 50.8198 56.3409 50.2024 56.3409C49.5622 56.3409 49.0603 56.4811 48.6967 56.7614C48.3331 57.0417 48.0774 57.3409 47.9297 57.6591L46.6569 57.2045C46.8842 56.6742 47.1872 56.2614 47.566 55.9659C47.9486 55.6667 48.3653 55.4583 48.816 55.3409C49.2706 55.2197 49.7175 55.1591 50.1569 55.1591C50.4372 55.1591 50.7592 55.1932 51.1228 55.2614C51.4903 55.3258 51.8444 55.4602 52.1853 55.6648C52.53 55.8693 52.816 56.178 53.0433 56.5909C53.2706 57.0038 53.3842 57.5568 53.3842 58.25V64H52.0433V62.8182H51.9751C51.8842 63.0076 51.7327 63.2102 51.5206 63.4261C51.3084 63.642 51.0262 63.8258 50.674 63.9773C50.3217 64.1288 49.8918 64.2045 49.3842 64.2045ZM49.5887 63C50.1191 63 50.566 62.8958 50.9297 62.6875C51.2971 62.4792 51.5736 62.2102 51.7592 61.8807C51.9486 61.5511 52.0433 61.2045 52.0433 60.8409V59.6136C51.9865 59.6818 51.8615 59.7443 51.6683 59.8011C51.4789 59.8542 51.2592 59.9015 51.0092 59.9432C50.763 59.9811 50.5225 60.0152 50.2876 60.0455C50.0566 60.072 49.8691 60.0947 49.7251 60.1136C49.3766 60.1591 49.0509 60.233 48.7478 60.3352C48.4486 60.4337 48.2062 60.5833 48.0206 60.7841C47.8387 60.9811 47.7478 61.25 47.7478 61.5909C47.7478 62.0568 47.9202 62.4091 48.2649 62.6477C48.6134 62.8826 49.0547 63 49.5887 63ZM62.2835 57.2273L61.0789 57.5682C61.0032 57.3674 60.8914 57.1723 60.7437 56.983C60.5998 56.7898 60.4028 56.6307 60.1528 56.5057C59.9028 56.3807 59.5827 56.3182 59.1926 56.3182C58.6585 56.3182 58.2134 56.4413 57.8573 56.6875C57.5051 56.9299 57.3289 57.2386 57.3289 57.6136C57.3289 57.947 57.4501 58.2102 57.6926 58.4034C57.935 58.5966 58.3138 58.7576 58.8289 58.8864L60.1244 59.2045C60.9047 59.3939 61.4861 59.6837 61.8687 60.0739C62.2513 60.4602 62.4426 60.9583 62.4426 61.5682C62.4426 62.0682 62.2986 62.5152 62.0107 62.9091C61.7266 63.303 61.3289 63.6136 60.8176 63.8409C60.3062 64.0682 59.7115 64.1818 59.0335 64.1818C58.1433 64.1818 57.4066 63.9886 56.8232 63.6023C56.2399 63.2159 55.8706 62.6515 55.7153 61.9091L56.988 61.5909C57.1092 62.0606 57.3384 62.4129 57.6755 62.6477C58.0164 62.8826 58.4615 63 59.0107 63C59.6357 63 60.132 62.8674 60.4994 62.6023C60.8706 62.3333 61.0562 62.0114 61.0562 61.6364C61.0562 61.3333 60.9501 61.0795 60.738 60.875C60.5259 60.6667 60.2001 60.5114 59.7607 60.4091L58.3062 60.0682C57.507 59.8788 56.9198 59.5852 56.5448 59.1875C56.1736 58.786 55.988 58.2841 55.988 57.6818C55.988 57.1894 56.1263 56.7538 56.4028 56.375C56.6831 55.9962 57.0638 55.6989 57.5448 55.483C58.0297 55.267 58.5789 55.1591 59.1926 55.1591C60.0562 55.1591 60.7342 55.3485 61.2266 55.7273C61.7229 56.1061 62.0751 56.6061 62.2835 57.2273ZM68.5265 55.2727V56.4091H64.0037V55.2727H68.5265ZM65.3219 53.1818H66.6628V61.5C66.6628 61.8788 66.7178 62.1629 66.8276 62.3523C66.9412 62.5379 67.0852 62.6629 67.2594 62.7273C67.4375 62.7879 67.625 62.8182 67.8219 62.8182C67.9697 62.8182 68.0909 62.8106 68.1856 62.7955C68.2803 62.7765 68.356 62.7614 68.4128 62.75L68.6856 63.9545C68.5947 63.9886 68.4678 64.0227 68.3049 64.0568C68.142 64.0947 67.9356 64.1136 67.6856 64.1136C67.3068 64.1136 66.9356 64.0322 66.5719 63.8693C66.2121 63.7064 65.9128 63.4583 65.6742 63.125C65.4394 62.7917 65.3219 62.3712 65.3219 61.8636V53.1818ZM74.3789 64.1818C73.538 64.1818 72.8126 63.9962 72.2027 63.625C71.5967 63.25 71.1289 62.7273 70.7993 62.0568C70.4736 61.3826 70.3107 60.5985 70.3107 59.7045C70.3107 58.8106 70.4736 58.0227 70.7993 57.3409C71.1289 56.6553 71.5872 56.1212 72.1743 55.7386C72.7652 55.3523 73.4546 55.1591 74.2425 55.1591C74.697 55.1591 75.1459 55.2348 75.5891 55.3864C76.0323 55.5379 76.4357 55.7841 76.7993 56.125C77.163 56.4621 77.4527 56.9091 77.6686 57.4659C77.8845 58.0227 77.9925 58.7083 77.9925 59.5227V60.0909H71.2652V58.9318H76.6289C76.6289 58.4394 76.5304 58 76.3334 57.6136C76.1402 57.2273 75.8637 56.9223 75.5039 56.6989C75.1478 56.4754 74.7273 56.3636 74.2425 56.3636C73.7084 56.3636 73.2463 56.4962 72.8561 56.7614C72.4698 57.0227 72.1724 57.3636 71.9641 57.7841C71.7558 58.2045 71.6516 58.6553 71.6516 59.1364V59.9091C71.6516 60.5682 71.7652 61.1269 71.9925 61.5852C72.2236 62.0398 72.5436 62.3864 72.9527 62.625C73.3618 62.8598 73.8372 62.9773 74.3789 62.9773C74.7311 62.9773 75.0493 62.928 75.3334 62.8295C75.6213 62.7273 75.8694 62.5758 76.0777 62.375C76.2861 62.1705 76.447 61.9167 76.5607 61.6136L77.8561 61.9773C77.7198 62.4167 77.4906 62.803 77.1686 63.1364C76.8467 63.4659 76.4489 63.7235 75.9755 63.9091C75.502 64.0909 74.9698 64.1818 74.3789 64.1818ZM80.3023 64V55.2727H81.5977V56.5909H81.6886C81.8477 56.1591 82.1356 55.8087 82.5523 55.5398C82.9689 55.2708 83.4386 55.1364 83.9614 55.1364C84.0598 55.1364 84.183 55.1383 84.3307 55.142C84.4784 55.1458 84.5901 55.1515 84.6659 55.1591V56.5227C84.6205 56.5114 84.5163 56.4943 84.3534 56.4716C84.1943 56.4451 84.0258 56.4318 83.8477 56.4318C83.4235 56.4318 83.0447 56.5208 82.7114 56.6989C82.3818 56.8731 82.1205 57.1155 81.9273 57.4261C81.7379 57.733 81.6432 58.0833 81.6432 58.4773V64H80.3023ZM93.8636 64.2045C93.3105 64.2045 92.8087 64.1004 92.3579 63.892C91.9071 63.6799 91.5492 63.375 91.284 62.9773C91.0189 62.5758 90.8863 62.0909 90.8863 61.5227C90.8863 61.0227 90.9848 60.6174 91.1818 60.3068C91.3787 59.9924 91.642 59.7462 91.9715 59.5682C92.3011 59.3902 92.6647 59.2576 93.0624 59.1705C93.464 59.0795 93.8674 59.0076 94.2727 58.9545C94.803 58.8864 95.2329 58.8352 95.5624 58.8011C95.8958 58.7633 96.1382 58.7008 96.2897 58.6136C96.445 58.5265 96.5227 58.375 96.5227 58.1591V58.1136C96.5227 57.553 96.3693 57.1174 96.0624 56.8068C95.7594 56.4962 95.2992 56.3409 94.6818 56.3409C94.0416 56.3409 93.5397 56.4811 93.1761 56.7614C92.8124 57.0417 92.5568 57.3409 92.409 57.6591L91.1363 57.2045C91.3636 56.6742 91.6666 56.2614 92.0454 55.9659C92.428 55.6667 92.8446 55.4583 93.2954 55.3409C93.7499 55.2197 94.1969 55.1591 94.6363 55.1591C94.9166 55.1591 95.2386 55.1932 95.6022 55.2614C95.9696 55.3258 96.3238 55.4602 96.6647 55.6648C97.0094 55.8693 97.2954 56.178 97.5227 56.5909C97.7499 57.0038 97.8636 57.5568 97.8636 58.25V64H96.5227V62.8182H96.4545C96.3636 63.0076 96.2121 63.2102 95.9999 63.4261C95.7878 63.642 95.5056 63.8258 95.1534 63.9773C94.8011 64.1288 94.3712 64.2045 93.8636 64.2045ZM94.0681 63C94.5984 63 95.0454 62.8958 95.409 62.6875C95.7765 62.4792 96.053 62.2102 96.2386 61.8807C96.428 61.5511 96.5227 61.2045 96.5227 60.8409V59.6136C96.4659 59.6818 96.3409 59.7443 96.1477 59.8011C95.9583 59.8542 95.7386 59.9015 95.4886 59.9432C95.2424 59.9811 95.0018 60.0152 94.767 60.0455C94.5359 60.072 94.3484 60.0947 94.2045 60.1136C93.856 60.1591 93.5302 60.233 93.2272 60.3352C92.928 60.4337 92.6855 60.5833 92.4999 60.7841C92.3181 60.9811 92.2272 61.25 92.2272 61.5909C92.2272 62.0568 92.3996 62.4091 92.7443 62.6477C93.0927 62.8826 93.534 63 94.0681 63ZM101.922 58.75V64H100.581V55.2727H101.876V56.6364H101.99C102.195 56.1932 102.505 55.8371 102.922 55.5682C103.339 55.2955 103.876 55.1591 104.536 55.1591C105.126 55.1591 105.644 55.2803 106.087 55.5227C106.53 55.7614 106.875 56.125 107.121 56.6136C107.367 57.0985 107.49 57.7121 107.49 58.4545V64H106.149V58.5455C106.149 57.8598 105.971 57.3258 105.615 56.9432C105.259 56.5568 104.77 56.3636 104.149 56.3636C103.721 56.3636 103.339 56.4564 103.001 56.642C102.668 56.8277 102.405 57.0985 102.212 57.4545C102.019 57.8106 101.922 58.2424 101.922 58.75ZM113.506 64.1818C112.779 64.1818 112.137 63.9981 111.58 63.6307C111.023 63.2595 110.587 62.7367 110.273 62.0625C109.959 61.3845 109.801 60.5833 109.801 59.6591C109.801 58.7424 109.959 57.947 110.273 57.2727C110.587 56.5985 111.025 56.0777 111.585 55.7102C112.146 55.3428 112.794 55.1591 113.529 55.1591C114.097 55.1591 114.546 55.2538 114.875 55.4432C115.209 55.6288 115.462 55.8409 115.637 56.0795C115.815 56.3144 115.953 56.5076 116.051 56.6591H116.165V52.3636H117.506V64H116.21V62.6591H116.051C115.953 62.8182 115.813 63.0189 115.631 63.2614C115.449 63.5 115.19 63.714 114.852 63.9034C114.515 64.089 114.066 64.1818 113.506 64.1818ZM113.688 62.9773C114.226 62.9773 114.68 62.8371 115.051 62.5568C115.423 62.2727 115.705 61.8807 115.898 61.3807C116.091 60.8769 116.188 60.2955 116.188 59.6364C116.188 58.9848 116.093 58.4148 115.904 57.9261C115.714 57.4337 115.434 57.0511 115.063 56.7784C114.691 56.5019 114.233 56.3636 113.688 56.3636C113.119 56.3636 112.646 56.5095 112.267 56.8011C111.892 57.089 111.61 57.4811 111.421 57.9773C111.235 58.4697 111.142 59.0227 111.142 59.6364C111.142 60.2576 111.237 60.822 111.426 61.3295C111.619 61.8333 111.904 62.2348 112.279 62.5341C112.657 62.8295 113.127 62.9773 113.688 62.9773ZM130.688 60.4318V55.2727H132.029V64H130.688V62.5227H130.597C130.392 62.9659 130.074 63.3428 129.642 63.6534C129.211 63.9602 128.665 64.1136 128.006 64.1136C127.461 64.1136 126.976 63.9943 126.552 63.7557C126.127 63.5133 125.794 63.1496 125.552 62.6648C125.309 62.1761 125.188 61.5606 125.188 60.8182V55.2727H126.529V60.7273C126.529 61.3636 126.707 61.8712 127.063 62.25C127.423 62.6288 127.881 62.8182 128.438 62.8182C128.771 62.8182 129.11 62.733 129.455 62.5625C129.803 62.392 130.095 62.1307 130.33 61.7784C130.569 61.4261 130.688 60.9773 130.688 60.4318ZM136.096 58.75V64H134.755V55.2727H136.05V56.6364H136.164C136.368 56.1932 136.679 55.8371 137.096 55.5682C137.512 55.2955 138.05 55.1591 138.709 55.1591C139.3 55.1591 139.817 55.2803 140.26 55.5227C140.704 55.7614 141.048 56.125 141.295 56.6136C141.541 57.0985 141.664 57.7121 141.664 58.4545V64H140.323V58.5455C140.323 57.8598 140.145 57.3258 139.789 56.9432C139.433 56.5568 138.944 56.3636 138.323 56.3636C137.895 56.3636 137.512 56.4564 137.175 56.642C136.842 56.8277 136.579 57.0985 136.385 57.4545C136.192 57.8106 136.096 58.2424 136.096 58.75ZM147.68 64.1818C146.952 64.1818 146.31 63.9981 145.753 63.6307C145.197 63.2595 144.761 62.7367 144.447 62.0625C144.132 61.3845 143.975 60.5833 143.975 59.6591C143.975 58.7424 144.132 57.947 144.447 57.2727C144.761 56.5985 145.199 56.0777 145.759 55.7102C146.32 55.3428 146.967 55.1591 147.702 55.1591C148.271 55.1591 148.719 55.2538 149.049 55.4432C149.382 55.6288 149.636 55.8409 149.81 56.0795C149.988 56.3144 150.127 56.5076 150.225 56.6591H150.339V52.3636H151.68V64H150.384V62.6591H150.225C150.127 62.8182 149.986 63.0189 149.805 63.2614C149.623 63.5 149.363 63.714 149.026 63.9034C148.689 64.089 148.24 64.1818 147.68 64.1818ZM147.861 62.9773C148.399 62.9773 148.854 62.8371 149.225 62.5568C149.596 62.2727 149.878 61.8807 150.072 61.3807C150.265 60.8769 150.361 60.2955 150.361 59.6364C150.361 58.9848 150.267 58.4148 150.077 57.9261C149.888 57.4337 149.608 57.0511 149.236 56.7784C148.865 56.5019 148.407 56.3636 147.861 56.3636C147.293 56.3636 146.82 56.5095 146.441 56.8011C146.066 57.089 145.784 57.4811 145.594 57.9773C145.409 58.4697 145.316 59.0227 145.316 59.6364C145.316 60.2576 145.411 60.822 145.6 61.3295C145.793 61.8333 146.077 62.2348 146.452 62.5341C146.831 62.8295 147.301 62.9773 147.861 62.9773ZM158.251 64.1818C157.41 64.1818 156.684 63.9962 156.075 63.625C155.469 63.25 155.001 62.7273 154.671 62.0568C154.345 61.3826 154.183 60.5985 154.183 59.7045C154.183 58.8106 154.345 58.0227 154.671 57.3409C155.001 56.6553 155.459 56.1212 156.046 55.7386C156.637 55.3523 157.327 55.1591 158.114 55.1591C158.569 55.1591 159.018 55.2348 159.461 55.3864C159.904 55.5379 160.308 55.7841 160.671 56.125C161.035 56.4621 161.325 56.9091 161.541 57.4659C161.756 58.0227 161.864 58.7083 161.864 59.5227V60.0909H155.137V58.9318H160.501C160.501 58.4394 160.402 58 160.205 57.6136C160.012 57.2273 159.736 56.9223 159.376 56.6989C159.02 56.4754 158.599 56.3636 158.114 56.3636C157.58 56.3636 157.118 56.4962 156.728 56.7614C156.342 57.0227 156.044 57.3636 155.836 57.7841C155.628 58.2045 155.523 58.6553 155.523 59.1364V59.9091C155.523 60.5682 155.637 61.1269 155.864 61.5852C156.095 62.0398 156.416 62.3864 156.825 62.625C157.234 62.8598 157.709 62.9773 158.251 62.9773C158.603 62.9773 158.921 62.928 159.205 62.8295C159.493 62.7273 159.741 62.5758 159.95 62.375C160.158 62.1705 160.319 61.9167 160.433 61.6136L161.728 61.9773C161.592 62.4167 161.362 62.803 161.041 63.1364C160.719 63.4659 160.321 63.7235 159.847 63.9091C159.374 64.0909 158.842 64.1818 158.251 64.1818ZM164.174 64V55.2727H165.47V56.5909H165.561C165.72 56.1591 166.007 55.8087 166.424 55.5398C166.841 55.2708 167.311 55.1364 167.833 55.1364C167.932 55.1364 168.055 55.1383 168.203 55.142C168.35 55.1458 168.462 55.1515 168.538 55.1591V56.5227C168.492 56.5114 168.388 56.4943 168.225 56.4716C168.066 56.4451 167.898 56.4318 167.72 56.4318C167.295 56.4318 166.917 56.5208 166.583 56.6989C166.254 56.8731 165.992 57.1155 165.799 57.4261C165.61 57.733 165.515 58.0833 165.515 58.4773V64H164.174ZM176.579 57.2273L175.375 57.5682C175.299 57.3674 175.187 57.1723 175.039 56.983C174.895 56.7898 174.698 56.6307 174.448 56.5057C174.198 56.3807 173.878 56.3182 173.488 56.3182C172.954 56.3182 172.509 56.4413 172.153 56.6875C171.801 56.9299 171.625 57.2386 171.625 57.6136C171.625 57.947 171.746 58.2102 171.988 58.4034C172.231 58.5966 172.609 58.7576 173.125 58.8864L174.42 59.2045C175.2 59.3939 175.782 59.6837 176.164 60.0739C176.547 60.4602 176.738 60.9583 176.738 61.5682C176.738 62.0682 176.594 62.5152 176.306 62.9091C176.022 63.303 175.625 63.6136 175.113 63.8409C174.602 64.0682 174.007 64.1818 173.329 64.1818C172.439 64.1818 171.702 63.9886 171.119 63.6023C170.536 63.2159 170.166 62.6515 170.011 61.9091L171.284 61.5909C171.405 62.0606 171.634 62.4129 171.971 62.6477C172.312 62.8826 172.757 63 173.306 63C173.931 63 174.428 62.8674 174.795 62.6023C175.166 62.3333 175.352 62.0114 175.352 61.6364C175.352 61.3333 175.246 61.0795 175.034 60.875C174.822 60.6667 174.496 60.5114 174.056 60.4091L172.602 60.0682C171.803 59.8788 171.215 59.5852 170.84 59.1875C170.469 58.786 170.284 58.2841 170.284 57.6818C170.284 57.1894 170.422 56.7538 170.698 56.375C170.979 55.9962 171.359 55.6989 171.84 55.483C172.325 55.267 172.875 55.1591 173.488 55.1591C174.352 55.1591 175.03 55.3485 175.522 55.7273C176.018 56.1061 176.371 56.6061 176.579 57.2273ZM182.822 55.2727V56.4091H178.299V55.2727H182.822ZM179.618 53.1818H180.958V61.5C180.958 61.8788 181.013 62.1629 181.123 62.3523C181.237 62.5379 181.381 62.6629 181.555 62.7273C181.733 62.7879 181.921 62.8182 182.118 62.8182C182.265 62.8182 182.386 62.8106 182.481 62.7955C182.576 62.7765 182.652 62.7614 182.708 62.75L182.981 63.9545C182.89 63.9886 182.763 64.0227 182.601 64.0568C182.438 64.0947 182.231 64.1136 181.981 64.1136C181.602 64.1136 181.231 64.0322 180.868 63.8693C180.508 63.7064 180.208 63.4583 179.97 63.125C179.735 62.7917 179.618 62.3712 179.618 61.8636V53.1818ZM187.677 64.2045C187.124 64.2045 186.622 64.1004 186.172 63.892C185.721 63.6799 185.363 63.375 185.098 62.9773C184.833 62.5758 184.7 62.0909 184.7 61.5227C184.7 61.0227 184.799 60.6174 184.996 60.3068C185.192 59.9924 185.456 59.7462 185.785 59.5682C186.115 59.3902 186.478 59.2576 186.876 59.1705C187.278 59.0795 187.681 59.0076 188.086 58.9545C188.617 58.8864 189.047 58.8352 189.376 58.8011C189.71 58.7633 189.952 58.7008 190.103 58.6136C190.259 58.5265 190.336 58.375 190.336 58.1591V58.1136C190.336 57.553 190.183 57.1174 189.876 56.8068C189.573 56.4962 189.113 56.3409 188.496 56.3409C187.855 56.3409 187.353 56.4811 186.99 56.7614C186.626 57.0417 186.371 57.3409 186.223 57.6591L184.95 57.2045C185.177 56.6742 185.48 56.2614 185.859 55.9659C186.242 55.6667 186.658 55.4583 187.109 55.3409C187.564 55.2197 188.011 55.1591 188.45 55.1591C188.73 55.1591 189.052 55.1932 189.416 55.2614C189.783 55.3258 190.138 55.4602 190.478 55.6648C190.823 55.8693 191.109 56.178 191.336 56.5909C191.564 57.0038 191.677 57.5568 191.677 58.25V64H190.336V62.8182H190.268C190.177 63.0076 190.026 63.2102 189.814 63.4261C189.602 63.642 189.319 63.8258 188.967 63.9773C188.615 64.1288 188.185 64.2045 187.677 64.2045ZM187.882 63C188.412 63 188.859 62.8958 189.223 62.6875C189.59 62.4792 189.867 62.2102 190.052 61.8807C190.242 61.5511 190.336 61.2045 190.336 60.8409V59.6136C190.28 59.6818 190.155 59.7443 189.961 59.8011C189.772 59.8542 189.552 59.9015 189.302 59.9432C189.056 59.9811 188.816 60.0152 188.581 60.0455C188.35 60.072 188.162 60.0947 188.018 60.1136C187.67 60.1591 187.344 60.233 187.041 60.3352C186.742 60.4337 186.499 60.5833 186.314 60.7841C186.132 60.9811 186.041 61.25 186.041 61.5909C186.041 62.0568 186.213 62.4091 186.558 62.6477C186.907 62.8826 187.348 63 187.882 63ZM195.736 58.75V64H194.395V55.2727H195.69V56.6364H195.804C196.008 56.1932 196.319 55.8371 196.736 55.5682C197.152 55.2955 197.69 55.1591 198.349 55.1591C198.94 55.1591 199.457 55.2803 199.9 55.5227C200.344 55.7614 200.688 56.125 200.935 56.6136C201.181 57.0985 201.304 57.7121 201.304 58.4545V64H199.963V58.5455C199.963 57.8598 199.785 57.3258 199.429 56.9432C199.073 56.5568 198.584 56.3636 197.963 56.3636C197.535 56.3636 197.152 56.4564 196.815 56.642C196.482 56.8277 196.219 57.0985 196.025 57.4545C195.832 57.8106 195.736 58.2424 195.736 58.75ZM207.32 64.1818C206.592 64.1818 205.95 63.9981 205.393 63.6307C204.837 63.2595 204.401 62.7367 204.087 62.0625C203.772 61.3845 203.615 60.5833 203.615 59.6591C203.615 58.7424 203.772 57.947 204.087 57.2727C204.401 56.5985 204.839 56.0777 205.399 55.7102C205.96 55.3428 206.607 55.1591 207.342 55.1591C207.911 55.1591 208.359 55.2538 208.689 55.4432C209.022 55.6288 209.276 55.8409 209.45 56.0795C209.628 56.3144 209.767 56.5076 209.865 56.6591H209.979V52.3636H211.32V64H210.024V62.6591H209.865C209.767 62.8182 209.626 63.0189 209.445 63.2614C209.263 63.5 209.003 63.714 208.666 63.9034C208.329 64.089 207.88 64.1818 207.32 64.1818ZM207.501 62.9773C208.039 62.9773 208.494 62.8371 208.865 62.5568C209.236 62.2727 209.518 61.8807 209.712 61.3807C209.905 60.8769 210.001 60.2955 210.001 59.6364C210.001 58.9848 209.907 58.4148 209.717 57.9261C209.528 57.4337 209.248 57.0511 208.876 56.7784C208.505 56.5019 208.047 56.3636 207.501 56.3636C206.933 56.3636 206.46 56.5095 206.081 56.8011C205.706 57.089 205.424 57.4811 205.234 57.9773C205.049 58.4697 204.956 59.0227 204.956 59.6364C204.956 60.2576 205.051 60.822 205.24 61.3295C205.433 61.8333 205.717 62.2348 206.092 62.5341C206.471 62.8295 206.941 62.9773 207.501 62.9773ZM220.979 64L218.32 55.2727H219.729L221.615 61.9545H221.706L223.57 55.2727H225.002L226.843 61.9318H226.933L228.82 55.2727H230.229L227.57 64H226.252L224.343 57.2955H224.206L222.297 64H220.979ZM233.613 58.75V64H232.272V52.3636H233.613V56.6364H233.726C233.931 56.1856 234.238 55.8277 234.647 55.5625C235.06 55.2936 235.609 55.1591 236.294 55.1591C236.889 55.1591 237.41 55.2784 237.857 55.517C238.304 55.7519 238.65 56.1136 238.897 56.6023C239.147 57.0871 239.272 57.7045 239.272 58.4545V64H237.931V58.5455C237.931 57.8523 237.751 57.3163 237.391 56.9375C237.035 56.5549 236.541 56.3636 235.908 56.3636C235.469 56.3636 235.075 56.4564 234.726 56.642C234.381 56.8277 234.109 57.0985 233.908 57.4545C233.711 57.8106 233.613 58.2424 233.613 58.75ZM244.563 64.2045C244.01 64.2045 243.508 64.1004 243.057 63.892C242.607 63.6799 242.249 63.375 241.983 62.9773C241.718 62.5758 241.586 62.0909 241.586 61.5227C241.586 61.0227 241.684 60.6174 241.881 60.3068C242.078 59.9924 242.341 59.7462 242.671 59.5682C243 59.3902 243.364 59.2576 243.762 59.1705C244.163 59.0795 244.567 59.0076 244.972 58.9545C245.502 58.8864 245.932 58.8352 246.262 58.8011C246.595 58.7633 246.838 58.7008 246.989 58.6136C247.144 58.5265 247.222 58.375 247.222 58.1591V58.1136C247.222 57.553 247.069 57.1174 246.762 56.8068C246.459 56.4962 245.999 56.3409 245.381 56.3409C244.741 56.3409 244.239 56.4811 243.875 56.7614C243.512 57.0417 243.256 57.3409 243.108 57.6591L241.836 57.2045C242.063 56.6742 242.366 56.2614 242.745 55.9659C243.127 55.6667 243.544 55.4583 243.995 55.3409C244.449 55.2197 244.896 55.1591 245.336 55.1591C245.616 55.1591 245.938 55.1932 246.302 55.2614C246.669 55.3258 247.023 55.4602 247.364 55.6648C247.709 55.8693 247.995 56.178 248.222 56.5909C248.449 57.0038 248.563 57.5568 248.563 58.25V64H247.222V62.8182H247.154C247.063 63.0076 246.911 63.2102 246.699 63.4261C246.487 63.642 246.205 63.8258 245.853 63.9773C245.5 64.1288 245.071 64.2045 244.563 64.2045ZM244.768 63C245.298 63 245.745 62.8958 246.108 62.6875C246.476 62.4792 246.752 62.2102 246.938 61.8807C247.127 61.5511 247.222 61.2045 247.222 60.8409V59.6136C247.165 59.6818 247.04 59.7443 246.847 59.8011C246.658 59.8542 246.438 59.9015 246.188 59.9432C245.942 59.9811 245.701 60.0152 245.466 60.0455C245.235 60.072 245.048 60.0947 244.904 60.1136C244.555 60.1591 244.23 60.233 243.927 60.3352C243.627 60.4337 243.385 60.5833 243.199 60.7841C243.018 60.9811 242.927 61.25 242.927 61.5909C242.927 62.0568 243.099 62.4091 243.444 62.6477C243.792 62.8826 244.233 63 244.768 63ZM255.076 55.2727V56.4091H250.553V55.2727H255.076ZM251.871 53.1818H253.212V61.5C253.212 61.8788 253.267 62.1629 253.377 62.3523C253.491 62.5379 253.635 62.6629 253.809 62.7273C253.987 62.7879 254.174 62.8182 254.371 62.8182C254.519 62.8182 254.64 62.8106 254.735 62.7955C254.83 62.7765 254.905 62.7614 254.962 62.75L255.235 63.9545C255.144 63.9886 255.017 64.0227 254.854 64.0568C254.691 64.0947 254.485 64.1136 254.235 64.1136C253.856 64.1136 253.485 64.0322 253.121 63.8693C252.761 63.7064 252.462 63.4583 252.224 63.125C251.989 62.7917 251.871 62.3712 251.871 61.8636V53.1818ZM262.997 67.2727C262.769 67.2727 262.567 67.2538 262.389 67.2159C262.211 67.1818 262.087 67.1477 262.019 67.1136L262.36 65.9318C262.686 66.0152 262.974 66.0455 263.224 66.0227C263.474 66 263.695 65.8883 263.889 65.6875C264.086 65.4905 264.265 65.1705 264.428 64.7273L264.678 64.0455L261.451 55.2727H262.906L265.315 62.2273H265.406L267.815 55.2727H269.269L265.565 65.2727C265.398 65.7235 265.192 66.0966 264.945 66.392C264.699 66.6913 264.413 66.9129 264.087 67.0568C263.765 67.2008 263.402 67.2727 262.997 67.2727ZM274.542 64.1818C273.754 64.1818 273.063 63.9943 272.468 63.6193C271.877 63.2443 271.415 62.7197 271.082 62.0455C270.752 61.3712 270.588 60.5833 270.588 59.6818C270.588 58.7727 270.752 57.9792 271.082 57.3011C271.415 56.6231 271.877 56.0966 272.468 55.7216C273.063 55.3466 273.754 55.1591 274.542 55.1591C275.33 55.1591 276.019 55.3466 276.61 55.7216C277.205 56.0966 277.667 56.6231 277.997 57.3011C278.33 57.9792 278.497 58.7727 278.497 59.6818C278.497 60.5833 278.33 61.3712 277.997 62.0455C277.667 62.7197 277.205 63.2443 276.61 63.6193C276.019 63.9943 275.33 64.1818 274.542 64.1818ZM274.542 62.9773C275.141 62.9773 275.633 62.8239 276.019 62.517C276.406 62.2102 276.692 61.8068 276.877 61.3068C277.063 60.8068 277.156 60.2652 277.156 59.6818C277.156 59.0985 277.063 58.5549 276.877 58.0511C276.692 57.5473 276.406 57.1402 276.019 56.8295C275.633 56.5189 275.141 56.3636 274.542 56.3636C273.944 56.3636 273.451 56.5189 273.065 56.8295C272.678 57.1402 272.392 57.5473 272.207 58.0511C272.021 58.5549 271.928 59.0985 271.928 59.6818C271.928 60.2652 272.021 60.8068 272.207 61.3068C272.392 61.8068 272.678 62.2102 273.065 62.517C273.451 62.8239 273.944 62.9773 274.542 62.9773ZM286.314 60.4318V55.2727H287.654V64H286.314V62.5227H286.223C286.018 62.9659 285.7 63.3428 285.268 63.6534C284.836 63.9602 284.291 64.1136 283.632 64.1136C283.086 64.1136 282.601 63.9943 282.177 63.7557C281.753 63.5133 281.42 63.1496 281.177 62.6648C280.935 62.1761 280.814 61.5606 280.814 60.8182V55.2727H282.154V60.7273C282.154 61.3636 282.332 61.8712 282.689 62.25C283.048 62.6288 283.507 62.8182 284.064 62.8182C284.397 62.8182 284.736 62.733 285.081 62.5625C285.429 62.392 285.721 62.1307 285.956 61.7784C286.194 61.4261 286.314 60.9773 286.314 60.4318ZM296.491 58.75V64H295.15V55.2727H296.446V56.6364H296.559C296.764 56.1932 297.075 55.8371 297.491 55.5682C297.908 55.2955 298.446 55.1591 299.105 55.1591C299.696 55.1591 300.213 55.2803 300.656 55.5227C301.099 55.7614 301.444 56.125 301.69 56.6136C301.936 57.0985 302.059 57.7121 302.059 58.4545V64H300.719V58.5455C300.719 57.8598 300.541 57.3258 300.184 56.9432C299.828 56.5568 299.34 56.3636 298.719 56.3636C298.291 56.3636 297.908 56.4564 297.571 56.642C297.238 56.8277 296.974 57.0985 296.781 57.4545C296.588 57.8106 296.491 58.2424 296.491 58.75ZM308.439 64.1818C307.598 64.1818 306.873 63.9962 306.263 63.625C305.657 63.25 305.189 62.7273 304.859 62.0568C304.534 61.3826 304.371 60.5985 304.371 59.7045C304.371 58.8106 304.534 58.0227 304.859 57.3409C305.189 56.6553 305.647 56.1212 306.234 55.7386C306.825 55.3523 307.515 55.1591 308.302 55.1591C308.757 55.1591 309.206 55.2348 309.649 55.3864C310.092 55.5379 310.496 55.7841 310.859 56.125C311.223 56.4621 311.513 56.9091 311.729 57.4659C311.945 58.0227 312.052 58.7083 312.052 59.5227V60.0909H305.325V58.9318H310.689C310.689 58.4394 310.59 58 310.393 57.6136C310.2 57.2273 309.924 56.9223 309.564 56.6989C309.208 56.4754 308.787 56.3636 308.302 56.3636C307.768 56.3636 307.306 56.4962 306.916 56.7614C306.53 57.0227 306.232 57.3636 306.024 57.7841C305.816 58.2045 305.712 58.6553 305.712 59.1364V59.9091C305.712 60.5682 305.825 61.1269 306.052 61.5852C306.284 62.0398 306.604 62.3864 307.013 62.625C307.422 62.8598 307.897 62.9773 308.439 62.9773C308.791 62.9773 309.109 62.928 309.393 62.8295C309.681 62.7273 309.929 62.5758 310.138 62.375C310.346 62.1705 310.507 61.9167 310.621 61.6136L311.916 61.9773C311.78 62.4167 311.551 62.803 311.229 63.1364C310.907 63.4659 310.509 63.7235 310.035 63.9091C309.562 64.0909 309.03 64.1818 308.439 64.1818ZM318.021 64.1818C317.18 64.1818 316.455 63.9962 315.845 63.625C315.239 63.25 314.771 62.7273 314.442 62.0568C314.116 61.3826 313.953 60.5985 313.953 59.7045C313.953 58.8106 314.116 58.0227 314.442 57.3409C314.771 56.6553 315.23 56.1212 315.817 55.7386C316.408 55.3523 317.097 55.1591 317.885 55.1591C318.34 55.1591 318.788 55.2348 319.232 55.3864C319.675 55.5379 320.078 55.7841 320.442 56.125C320.805 56.4621 321.095 56.9091 321.311 57.4659C321.527 58.0227 321.635 58.7083 321.635 59.5227V60.0909H314.908V58.9318H320.271C320.271 58.4394 320.173 58 319.976 57.6136C319.783 57.2273 319.506 56.9223 319.146 56.6989C318.79 56.4754 318.37 56.3636 317.885 56.3636C317.351 56.3636 316.889 56.4962 316.499 56.7614C316.112 57.0227 315.815 57.3636 315.607 57.7841C315.398 58.2045 315.294 58.6553 315.294 59.1364V59.9091C315.294 60.5682 315.408 61.1269 315.635 61.5852C315.866 62.0398 316.186 62.3864 316.595 62.625C317.004 62.8598 317.48 62.9773 318.021 62.9773C318.374 62.9773 318.692 62.928 318.976 62.8295C319.264 62.7273 319.512 62.5758 319.72 62.375C319.929 62.1705 320.09 61.9167 320.203 61.6136L321.499 61.9773C321.362 62.4167 321.133 62.803 320.811 63.1364C320.489 63.4659 320.091 63.7235 319.618 63.9091C319.144 64.0909 318.612 64.1818 318.021 64.1818ZM327.24 64.1818C326.513 64.1818 325.871 63.9981 325.314 63.6307C324.757 63.2595 324.322 62.7367 324.007 62.0625C323.693 61.3845 323.536 60.5833 323.536 59.6591C323.536 58.7424 323.693 57.947 324.007 57.2727C324.322 56.5985 324.759 56.0777 325.32 55.7102C325.88 55.3428 326.528 55.1591 327.263 55.1591C327.831 55.1591 328.28 55.2538 328.61 55.4432C328.943 55.6288 329.197 55.8409 329.371 56.0795C329.549 56.3144 329.687 56.5076 329.786 56.6591H329.899V52.3636H331.24V64H329.945V62.6591H329.786C329.687 62.8182 329.547 63.0189 329.365 63.2614C329.183 63.5 328.924 63.714 328.587 63.9034C328.25 64.089 327.801 64.1818 327.24 64.1818ZM327.422 62.9773C327.96 62.9773 328.414 62.8371 328.786 62.5568C329.157 62.2727 329.439 61.8807 329.632 61.3807C329.825 60.8769 329.922 60.2955 329.922 59.6364C329.922 58.9848 329.827 58.4148 329.638 57.9261C329.449 57.4337 329.168 57.0511 328.797 56.7784C328.426 56.5019 327.967 56.3636 327.422 56.3636C326.854 56.3636 326.38 56.5095 326.002 56.8011C325.627 57.089 325.344 57.4811 325.155 57.9773C324.969 58.4697 324.877 59.0227 324.877 59.6364C324.877 60.2576 324.971 60.822 325.161 61.3295C325.354 61.8333 325.638 62.2348 326.013 62.5341C326.392 62.8295 326.861 62.9773 327.422 62.9773ZM335.13 64.0909C334.849 64.0909 334.609 63.9905 334.408 63.7898C334.207 63.589 334.107 63.3485 334.107 63.0682C334.107 62.7879 334.207 62.5473 334.408 62.3466C334.609 62.1458 334.849 62.0455 335.13 62.0455C335.41 62.0455 335.65 62.1458 335.851 62.3466C336.052 62.5473 336.152 62.7879 336.152 63.0682C336.152 63.2538 336.105 63.4242 336.01 63.5795C335.919 63.7348 335.796 63.8598 335.641 63.9545C335.489 64.0455 335.319 64.0909 335.13 64.0909Z" fill="#202020"/>
</svg>
